<svg width="57" height="56" viewBox="0 0 57 56" fill="none" xmlns="http://www.w3.org/2000/svg">
<path d="M5.75 47.25H37.25" stroke="white" stroke-width="2" stroke-linecap="round" stroke-linejoin="round"/>
<path d="M4.20276 30.7058L12.4486 38.4363C13.5473 39.4662 14.9488 40.1144 16.4451 40.2846C17.9414 40.4548 19.4527 40.138 20.7546 39.381L53.8749 20.125L49.7976 15.1416C48.7398 13.8487 47.2546 12.9768 45.6102 12.6832C43.9658 12.3896 42.2706 12.6938 40.8308 13.5407L31.1249 19.25L17.9999 14.875L14.3908 16.4218C14.1208 16.5375 13.8842 16.7193 13.703 16.9505C13.5217 17.1817 13.4016 17.4548 13.3536 17.7446C13.3057 18.0345 13.3315 18.3317 13.4286 18.6089C13.5257 18.8862 13.6911 19.1345 13.9095 19.331L20.6249 25.375L14.5 28.875L8.37495 26.25L4.7103 27.8206C4.44305 27.9351 4.20855 28.1144 4.02799 28.3423C3.84743 28.5702 3.7265 28.8395 3.67612 29.1259C3.62575 29.4122 3.64752 29.7066 3.73947 29.9825C3.83141 30.2583 3.99064 30.5069 4.20276 30.7058V30.7058Z" stroke="white" stroke-width="2" stroke-linecap="round" stroke-linejoin="round"/>
</svg>
