<svg width="73" height="72" viewBox="0 0 73 72" fill="none" xmlns="http://www.w3.org/2000/svg">
<path d="M56.7513 52.7527C56.2873 52.7526 55.8262 52.8205 55.3851 52.9539C55.1782 51.8411 54.5601 50.8299 53.6371 50.0945C52.7141 49.3592 51.5439 48.9455 50.3279 48.9248C49.1119 48.9041 47.9262 49.2776 46.9748 49.981C46.0233 50.6845 45.3657 51.6739 45.115 52.7789C44.9518 52.77 44.7882 52.77 44.6251 52.7789H44.3518L45.294 48.9469H45.473C46.1086 48.9399 46.7154 48.6994 47.1604 48.278C47.6054 47.8566 47.8524 47.2885 47.8474 46.6983V46.5846C47.8474 45.9952 47.5953 45.43 47.1465 45.0132C46.6976 44.5965 46.0889 44.3623 45.4542 44.3623H44.9548L47.4423 36.8206C49.2704 35.5615 50.7689 33.9353 51.826 32.0635C52.883 30.1916 53.4714 28.1223 53.5472 26.0099C53.623 23.8975 53.1843 21.7964 52.2638 19.8634C51.3433 17.9303 49.9647 16.2152 48.2308 14.8458C46.497 13.4764 44.4526 12.4881 42.2501 11.9547C40.0476 11.4212 37.7439 11.3563 35.5106 11.7647C33.2773 12.1732 31.1722 13.0445 29.3521 14.3138C27.532 15.583 26.0439 17.2174 24.9989 19.095C24.2412 18.754 23.41 18.5774 22.568 18.5788C21.2866 18.5659 20.0411 18.9714 19.049 19.7247C18.057 20.4779 17.3816 21.5309 17.1409 22.6996C16.9495 22.6866 16.7575 22.6866 16.5661 22.6996C15.3991 22.6996 14.28 23.1301 13.4548 23.8964C12.6296 24.6626 12.166 25.7018 12.166 26.7855C12.166 27.8691 12.6296 28.9083 13.4548 29.6746C14.28 30.4408 15.3991 30.8713 16.5661 30.8713H24.4147C25.4656 33.2464 27.1877 35.3139 29.399 36.8556V36.8556L31.8864 44.3973H31.3871C30.7604 44.3996 30.1598 44.6299 29.714 45.0389C29.2683 45.4478 29.0131 46.0028 29.0033 46.5846V46.6983C29.0033 47.2885 29.2551 47.8547 29.7036 48.2728C30.1522 48.691 30.7609 48.927 31.3965 48.9294H31.5755L31.9995 50.6792L33.149 55.4912C33.1968 55.6885 33.3169 55.8644 33.4887 55.9888C33.6605 56.1132 33.8734 56.1785 34.0912 56.1736H40.404C40.3943 56.328 40.3943 56.4828 40.404 56.6373C40.4237 57.6655 40.8768 58.6454 41.666 59.3668C42.4553 60.0882 43.5176 60.4935 44.6251 60.4956H56.7513C57.3155 60.5205 57.8792 60.4389 58.4084 60.2555C58.9376 60.0722 59.4213 59.7911 59.83 59.4291C60.2388 59.0672 60.5642 58.632 60.7865 58.1498C61.0089 57.6677 61.1235 57.1486 61.1235 56.6242C61.1235 56.0997 61.0089 55.5807 60.7865 55.0985C60.5642 54.6164 60.2388 54.1811 59.83 53.8192C59.4213 53.4572 58.9376 53.1761 58.4084 52.9928C57.8792 52.8095 57.3155 52.7278 56.7513 52.7527ZM51.6728 25.5518C51.675 27.8203 50.9987 30.0448 49.7194 31.9773C48.4401 33.9098 46.6079 35.4745 44.4272 36.4969C46.5566 33.9422 47.9039 30.0226 47.9039 25.5518C47.9039 21.0811 46.5566 17.1527 44.4272 14.598C46.6094 15.6211 48.4425 17.1871 49.7219 19.1214C51.0013 21.0556 51.6767 23.2819 51.6728 25.5518V25.5518ZM31.0196 22.8746C31.7262 17.9402 34.3362 14.0118 37.4831 13.3556V37.748C34.8261 37.1969 32.546 34.3097 31.4813 30.4426C32.3003 30.1159 32.9912 29.5632 33.4604 28.8594C33.9295 28.1556 34.1541 27.3349 34.1037 26.5085C34.0533 25.6821 33.7303 24.8902 33.1786 24.2401C32.6268 23.59 31.8731 23.1133 31.0196 22.8746V22.8746ZM39.3675 37.748V13.3556C43.061 14.1256 46.0195 19.375 46.0195 25.5518C46.0195 31.7287 43.061 36.9694 39.3675 37.748ZM32.4235 14.598C30.5818 16.9778 29.4477 19.766 29.1352 22.6821C28.7699 22.7048 28.4092 22.7695 28.0611 22.8746C27.892 21.8315 27.363 20.8675 26.5535 20.1274C27.8126 17.742 29.8728 15.8013 32.4235 14.598V14.598ZM23.7929 29.0865H16.5661C15.8989 29.0865 15.259 28.8404 14.7873 28.4023C14.3155 27.9642 14.0504 27.37 14.0504 26.7505C14.0504 26.1309 14.3155 25.5367 14.7873 25.0987C15.259 24.6606 15.8989 24.4145 16.5661 24.4145C16.936 24.414 17.3019 24.4855 17.6402 24.6244C17.7895 24.6837 17.9526 24.7062 18.114 24.6897C18.2753 24.6732 18.4293 24.6182 18.561 24.5302C18.6928 24.4422 18.7978 24.3241 18.8659 24.1873C18.9341 24.0506 18.963 23.8997 18.9499 23.7495C18.9452 23.6884 18.9452 23.627 18.9499 23.5658C18.9721 22.6948 19.3656 21.8676 20.0439 21.2656C20.7222 20.6636 21.6299 20.3361 22.568 20.3549C23.2067 20.35 23.8358 20.4989 24.394 20.7872C24.9522 21.0755 25.4203 21.4933 25.7526 21.9997C26.0334 22.4709 26.1794 23.0011 26.1766 23.5396C26.1796 23.7844 26.1479 24.0285 26.0824 24.2657C26.0181 24.4536 26.024 24.6561 26.0991 24.8404C26.1743 25.0247 26.3142 25.1801 26.4963 25.2814C26.6784 25.3826 26.892 25.4238 27.1025 25.3983C27.3129 25.3727 27.5079 25.2819 27.6559 25.1406C28.0242 24.7982 28.4927 24.564 29.0033 24.467C29.1893 24.4319 29.3787 24.4143 29.5686 24.4145C30.0258 24.4139 30.4759 24.5192 30.8783 24.7207C31.278 24.9152 31.6135 25.2066 31.8491 25.564C32.0847 25.9214 32.2115 26.3314 32.2162 26.7505C32.2136 27.1253 32.1117 27.4937 31.9194 27.8233C31.7271 28.1529 31.4505 28.4335 31.1138 28.6403C30.6604 28.933 30.1208 29.0888 29.5686 29.0865H23.8211H23.7929ZM26.4781 30.8363H29.6251C30.1353 32.8845 31.0978 34.812 32.4517 36.4969C29.84 35.2769 27.7388 33.2857 26.4781 30.8363V30.8363ZM31.8299 38.1767C33.8813 39.1151 36.1386 39.6001 38.4253 39.5941C40.7107 39.5975 42.9667 39.1157 45.0208 38.1855L42.9856 44.3623H33.8651L31.8299 38.1767ZM30.8877 46.6983V46.5846C30.8877 46.4593 30.9413 46.3391 31.0367 46.2505C31.1321 46.1619 31.2615 46.1122 31.3965 46.1122H45.4542C45.5891 46.1122 45.7186 46.1619 45.814 46.2505C45.9094 46.3391 45.963 46.4593 45.963 46.5846V46.6983C45.9643 46.7611 45.952 46.8235 45.927 46.8818C45.902 46.9402 45.8647 46.9933 45.8173 47.0381C45.77 47.0829 45.7135 47.1185 45.6511 47.1428C45.5888 47.167 45.5218 47.1796 45.4542 47.1795H31.3965C31.3289 47.1796 31.2619 47.167 31.1996 47.1428C31.1372 47.1185 31.0807 47.0829 31.0333 47.0381C30.986 46.9933 30.9487 46.9402 30.9237 46.8818C30.8987 46.8235 30.8864 46.7611 30.8877 46.6983V46.6983ZM34.8261 54.415L34.0912 51.3703H38.5949C38.8448 51.3703 39.0845 51.2782 39.2612 51.1141C39.4379 50.95 39.5371 50.7275 39.5371 50.4954C39.5371 50.2634 39.4379 50.0409 39.2612 49.8768C39.0845 49.7127 38.8448 49.6205 38.5949 49.6205H33.7143L33.5541 48.9381H43.3437L42.2695 53.4001C41.8169 53.6633 41.4259 54.0085 41.1201 54.415H34.8261ZM56.7513 58.7896H44.6251C44.3112 58.8013 43.9979 58.7542 43.7041 58.651C43.4103 58.5478 43.1419 58.3906 42.9149 58.1889C42.688 57.9871 42.5072 57.745 42.3834 57.4769C42.2595 57.2088 42.1952 56.9203 42.1942 56.6285C42.1938 56.4725 42.2128 56.3169 42.2507 56.1648C42.3497 55.795 42.5515 55.4557 42.8358 55.1809C43.1202 54.9061 43.4772 54.7054 43.8713 54.5988C44.4279 54.4433 45.0259 54.4774 45.5578 54.695C45.7101 54.7577 45.8774 54.7818 46.0429 54.7649C46.2084 54.748 46.3662 54.6907 46.5001 54.5988C46.6339 54.5091 46.74 54.3883 46.8078 54.2486C46.8756 54.1089 46.9027 53.9551 46.8864 53.8026C46.8817 53.7443 46.8817 53.6859 46.8864 53.6276C46.9317 52.8381 47.3013 52.0947 47.9192 51.5507C48.5371 51.0067 49.3562 50.7035 50.2076 50.7035C51.0591 50.7035 51.8782 51.0067 52.4961 51.5507C53.1139 52.0947 53.4836 52.8381 53.5289 53.6276C53.532 53.8523 53.5003 54.0762 53.4347 54.2925C53.3704 54.4804 53.3763 54.6829 53.4514 54.8672C53.5265 55.0515 53.6665 55.2069 53.8486 55.3082C54.0307 55.4094 54.2443 55.4506 54.4548 55.4251C54.6652 55.3995 54.8602 55.3088 55.0082 55.1674C55.4676 54.7541 56.0833 54.5247 56.723 54.5288C57.0354 54.5101 57.3486 54.5512 57.6432 54.6494C57.9379 54.7475 58.2077 54.9008 58.436 55.0996C58.6643 55.2985 58.8463 55.5387 58.9708 55.8054C59.0952 56.0721 59.1594 56.3597 59.1594 56.6504C59.1594 56.9411 59.0952 57.2287 58.9708 57.4954C58.8463 57.7621 58.6643 58.0023 58.436 58.2012C58.2077 58.4 57.9379 58.5533 57.6432 58.6515C57.3486 58.7496 57.0354 58.7907 56.723 58.7721L56.7513 58.7896Z" fill="#ECBBAC"/>
</svg>
