<svg width="49" height="48" viewBox="0 0 49 48" fill="none" xmlns="http://www.w3.org/2000/svg">
<path d="M24.5 30C27.8137 30 30.5 27.3137 30.5 24C30.5 20.6863 27.8137 18 24.5 18C21.1863 18 18.5 20.6863 18.5 24C18.5 27.3137 21.1863 30 24.5 30Z" stroke="#D87053" stroke-width="2" stroke-linecap="round" stroke-linejoin="round"/>
<path d="M14.953 33.546C13.698 32.2932 12.7024 30.8052 12.0231 29.1672C11.3438 27.5292 10.9941 25.7733 10.9941 24C10.9941 22.2268 11.3438 20.4709 12.0231 18.8329C12.7024 17.1949 13.698 15.7069 14.953 14.4541" stroke="#D87053" stroke-width="2" stroke-linecap="round" stroke-linejoin="round"/>
<path d="M34.0449 14.4541C35.2999 15.7069 36.2955 17.1949 36.9748 18.8329C37.6541 20.4709 38.0038 22.2268 38.0038 24C38.0038 25.7733 37.6541 27.5292 36.9748 29.1672C36.2955 30.8052 35.2999 32.2932 34.0449 33.546" stroke="#D87053" stroke-width="2" stroke-linecap="round" stroke-linejoin="round"/>
<path d="M9.65038 38.8489C7.69821 36.9 6.14948 34.5854 5.09278 32.0374C4.03609 29.4894 3.49219 26.7581 3.49219 23.9996C3.49219 21.2412 4.03609 18.5099 5.09278 15.9619C6.14948 13.4139 7.69821 11.0992 9.65038 9.15039" stroke="#D87053" stroke-width="2" stroke-linecap="round" stroke-linejoin="round"/>
<path d="M39.3496 9.15039C41.3018 11.0992 42.8505 13.4139 43.9072 15.9619C44.9639 18.5099 45.5078 21.2412 45.5078 23.9996C45.5078 26.7581 44.9639 29.4894 43.9072 32.0374C42.8505 34.5854 41.3018 36.9 39.3496 38.8489" stroke="#D87053" stroke-width="2" stroke-linecap="round" stroke-linejoin="round"/>
</svg>
