<svg width="25" height="24" viewBox="0 0 25 24" fill="none" xmlns="http://www.w3.org/2000/svg">
<path d="M12.5 15C14.1569 15 15.5 13.6569 15.5 12C15.5 10.3431 14.1569 9 12.5 9C10.8431 9 9.5 10.3431 9.5 12C9.5 13.6569 10.8431 15 12.5 15Z" stroke="#054A91" stroke-width="2" stroke-linecap="round" stroke-linejoin="round"/>
<path d="M7.72649 16.7729C7.09901 16.1465 6.6012 15.4025 6.26155 14.5835C5.9219 13.7645 5.74707 12.8865 5.74707 11.9999C5.74707 11.1133 5.9219 10.2353 6.26155 9.41633C6.6012 8.59733 7.09901 7.85334 7.72649 7.22693" stroke="#054A91" stroke-width="2" stroke-linecap="round" stroke-linejoin="round"/>
<path d="M17.2725 7.22693C17.8999 7.85334 18.3977 8.59733 18.7374 9.41633C19.077 10.2353 19.2519 11.1133 19.2519 11.9999C19.2519 12.8865 19.077 13.7645 18.7374 14.5835C18.3977 15.4025 17.8999 16.1465 17.2725 16.7729" stroke="#054A91" stroke-width="2" stroke-linecap="round" stroke-linejoin="round"/>
<path d="M5.07519 19.4246C4.09911 18.4501 3.32474 17.2928 2.79639 16.0188C2.26805 14.7448 1.99609 13.3792 1.99609 11.9999C1.99609 10.6207 2.26805 9.25505 2.79639 7.98105C3.32474 6.70705 4.09911 5.54973 5.07519 4.57532" stroke="#054A91" stroke-width="2" stroke-linecap="round" stroke-linejoin="round"/>
<path d="M19.9248 4.57532C20.9009 5.54973 21.6753 6.70705 22.2036 7.98105C22.7319 9.25505 23.0039 10.6207 23.0039 11.9999C23.0039 13.3792 22.7319 14.7448 22.2036 16.0188C21.6753 17.2928 20.9009 18.4501 19.9248 19.4246" stroke="#054A91" stroke-width="2" stroke-linecap="round" stroke-linejoin="round"/>
</svg>
