<svg width="33" height="32" viewBox="0 0 33 32" fill="none" xmlns="http://www.w3.org/2000/svg">
<path d="M16.5 20C18.7091 20 20.5 18.2091 20.5 16C20.5 13.7909 18.7091 12 16.5 12C14.2909 12 12.5 13.7909 12.5 16C12.5 18.2091 14.2909 20 16.5 20Z" stroke="white" stroke-width="2" stroke-linecap="round" stroke-linejoin="round"/>
<path d="M10.1363 22.3639C9.29965 21.5287 8.63591 20.5367 8.18304 19.4447C7.73017 18.3527 7.49707 17.1821 7.49707 15.9999C7.49707 14.8178 7.73017 13.6472 8.18304 12.5552C8.63591 11.4632 9.29965 10.4712 10.1363 9.63599" stroke="white" stroke-width="2" stroke-linecap="round" stroke-linejoin="round"/>
<path d="M22.8643 9.63599C23.7009 10.4712 24.3646 11.4632 24.8175 12.5552C25.2704 13.6472 25.5035 14.8178 25.5035 15.9999C25.5035 17.1821 25.2704 18.3527 24.8175 19.4447C24.3646 20.5367 23.7009 21.5287 22.8643 22.3639" stroke="white" stroke-width="2" stroke-linecap="round" stroke-linejoin="round"/>
<path d="M6.60058 25.8995C5.29913 24.6002 4.26664 23.0571 3.56218 21.3585C2.85772 19.6598 2.49512 17.8389 2.49512 16C2.49512 14.161 2.85772 12.3401 3.56218 10.6414C4.26664 8.94278 5.29913 7.39969 6.60058 6.10046" stroke="white" stroke-width="2" stroke-linecap="round" stroke-linejoin="round"/>
<path d="M26.3994 6.10046C27.7009 7.39969 28.7333 8.94278 29.4378 10.6414C30.1423 12.3401 30.5049 14.161 30.5049 16C30.5049 17.8389 30.1423 19.6598 29.4378 21.3585C28.7333 23.0571 27.7009 24.6002 26.3994 25.8995" stroke="white" stroke-width="2" stroke-linecap="round" stroke-linejoin="round"/>
</svg>
