<svg width="57" height="56" viewBox="0 0 57 56" fill="none" xmlns="http://www.w3.org/2000/svg">
<path d="M46 45.5H11C10.0717 45.5 9.1815 45.1313 8.52513 44.4749C7.86875 43.8185 7.5 42.9283 7.5 42V17.5C7.5 16.5717 7.86875 15.6815 8.52513 15.0251C9.1815 14.3687 10.0717 14 11 14H17.9987L21.4987 8.75H35.4987L38.9987 14H46C46.9283 14 47.8185 14.3687 48.4749 15.0251C49.1313 15.6815 49.5 16.5717 49.5 17.5V42C49.5 42.9283 49.1313 43.8185 48.4749 44.4749C47.8185 45.1313 46.9283 45.5 46 45.5Z" stroke="white" stroke-width="2" stroke-linecap="round" stroke-linejoin="round"/>
<path d="M28.5 36.75C32.8492 36.75 36.375 33.2242 36.375 28.875C36.375 24.5258 32.8492 21 28.5 21C24.1508 21 20.625 24.5258 20.625 28.875C20.625 33.2242 24.1508 36.75 28.5 36.75Z" stroke="white" stroke-width="2" stroke-linecap="round" stroke-linejoin="round"/>
</svg>
