<svg width="49" height="49" viewBox="0 0 49 49" fill="none" xmlns="http://www.w3.org/2000/svg">
<path d="M39.5 39.5H9.5C8.70435 39.5 7.94129 39.1839 7.37868 38.6213C6.81607 38.0587 6.5 37.2956 6.5 36.5V15.5C6.5 14.7044 6.81607 13.9413 7.37868 13.3787C7.94129 12.8161 8.70435 12.5 9.5 12.5H15.4989L18.4989 8H30.4989L33.4989 12.5H39.5C40.2956 12.5 41.0587 12.8161 41.6213 13.3787C42.1839 13.9413 42.5 14.7044 42.5 15.5V36.5C42.5 37.2956 42.1839 38.0587 41.6213 38.6213C41.0587 39.1839 40.2956 39.5 39.5 39.5Z" stroke="#D87053" stroke-width="2" stroke-linecap="round" stroke-linejoin="round"/>
<path d="M24.5 32C28.2279 32 31.25 28.9779 31.25 25.25C31.25 21.5221 28.2279 18.5 24.5 18.5C20.7721 18.5 17.75 21.5221 17.75 25.25C17.75 28.9779 20.7721 32 24.5 32Z" stroke="#D87053" stroke-width="2" stroke-linecap="round" stroke-linejoin="round"/>
</svg>
