<svg width="72" height="72" viewBox="0 0 72 72" fill="none" xmlns="http://www.w3.org/2000/svg">
<path d="M36 58.75V23.75" stroke="#ECBBAC" stroke-width="2" stroke-linecap="round" stroke-linejoin="round"/>
<path d="M36 23.75C38.4162 23.75 40.375 21.7912 40.375 19.375C40.375 16.9588 38.4162 15 36 15C33.5838 15 31.625 16.9588 31.625 19.375C31.625 21.7912 33.5838 23.75 36 23.75Z" stroke="#ECBBAC" stroke-width="2" stroke-linecap="round" stroke-linejoin="round"/>
<path d="M27.25 32.5H44.75" stroke="#ECBBAC" stroke-width="2" stroke-linecap="round" stroke-linejoin="round"/>
<path d="M16.75 39.5C16.75 42.2848 17.8562 44.9555 19.8254 46.9246C21.7945 48.8938 24.4652 50 27.25 50C29.5706 50 31.7962 50.9219 33.4372 52.5628C35.0781 54.2038 36 56.4294 36 58.75C36 56.4294 36.9219 54.2038 38.5628 52.5628C40.2038 50.9219 42.4294 50 44.75 50C47.5348 50 50.2055 48.8938 52.1746 46.9246C54.1438 44.9555 55.25 42.2848 55.25 39.5" stroke="#ECBBAC" stroke-width="2" stroke-linecap="round" stroke-linejoin="round"/>
</svg>
