<svg width="25" height="24" viewBox="0 0 25 24" fill="none" xmlns="http://www.w3.org/2000/svg">
<path d="M7.625 10.5C9.48896 10.5 11 8.98896 11 7.125C11 5.26104 9.48896 3.75 7.625 3.75C5.76104 3.75 4.25 5.26104 4.25 7.125C4.25 8.98896 5.76104 10.5 7.625 10.5Z" stroke="#054A91" stroke-width="2" stroke-linecap="round" stroke-linejoin="round"/>
<path d="M17.375 10.5C19.239 10.5 20.75 8.98896 20.75 7.125C20.75 5.26104 19.239 3.75 17.375 3.75C15.511 3.75 14 5.26104 14 7.125C14 8.98896 15.511 10.5 17.375 10.5Z" stroke="#054A91" stroke-width="2" stroke-linecap="round" stroke-linejoin="round"/>
<path d="M7.625 20.25C9.48896 20.25 11 18.739 11 16.875C11 15.011 9.48896 13.5 7.625 13.5C5.76104 13.5 4.25 15.011 4.25 16.875C4.25 18.739 5.76104 20.25 7.625 20.25Z" stroke="#054A91" stroke-width="2" stroke-linecap="round" stroke-linejoin="round"/>
<path d="M17.375 20.25C19.239 20.25 20.75 18.739 20.75 16.875C20.75 15.011 19.239 13.5 17.375 13.5C15.511 13.5 14 15.011 14 16.875C14 18.739 15.511 20.25 17.375 20.25Z" stroke="#054A91" stroke-width="2" stroke-linecap="round" stroke-linejoin="round"/>
</svg>
