<svg width="57" height="56" viewBox="0 0 57 56" fill="none" xmlns="http://www.w3.org/2000/svg">
<path d="M19.75 5.25V12.25" stroke="#3D3D3D" stroke-width="2" stroke-linecap="round" stroke-linejoin="round"/>
<path d="M26.75 5.25V12.25" stroke="#3D3D3D" stroke-width="2" stroke-linecap="round" stroke-linejoin="round"/>
<path d="M33.75 5.25V12.25" stroke="#3D3D3D" stroke-width="2" stroke-linecap="round" stroke-linejoin="round"/>
<path d="M7.5 47.25H46" stroke="#3D3D3D" stroke-width="2" stroke-linecap="round" stroke-linejoin="round"/>
<path d="M18.7211 47.2508C15.372 45.7135 12.5345 43.2473 10.5454 40.1451C8.55639 37.0429 7.4994 33.4351 7.5 29.75V19.25H46V29.75C46.0006 33.4351 44.9436 37.043 42.9545 40.1452C40.9655 43.2474 38.1279 45.7136 34.7788 47.2509" stroke="#3D3D3D" stroke-width="2" stroke-linecap="round" stroke-linejoin="round"/>
<path d="M46 19.25C47.8565 19.25 49.637 19.9875 50.9498 21.3003C52.2625 22.613 53 24.3935 53 26.25V28C53 29.8565 52.2625 31.637 50.9498 32.9497C49.637 34.2625 47.8565 35 46 35H45.261" stroke="#3D3D3D" stroke-width="2" stroke-linecap="round" stroke-linejoin="round"/>
</svg>
