<svg width="48" height="49" viewBox="0 0 48 49" fill="none" xmlns="http://www.w3.org/2000/svg">
<path d="M22 28.5H18C18 18.56 26.06 10.5 36 10.5V14.5C28.26 14.5 22 20.76 22 28.5ZM36 22.5V18.5C30.48 18.5 26 22.98 26 28.5H30C30 25.18 32.68 22.5 36 22.5ZM14 8.5C14 6.28 12.22 4.5 10 4.5C7.78 4.5 6 6.28 6 8.5C6 10.72 7.78 12.5 10 12.5C12.22 12.5 14 10.72 14 8.5ZM22.9 9.5H18.9C18.42 12.34 15.98 14.5 13 14.5H7C5.34 14.5 4 15.84 4 17.5V22.5H16V17.98C19.72 16.8 22.5 13.52 22.9 9.5ZM38 34.5C40.22 34.5 42 32.72 42 30.5C42 28.28 40.22 26.5 38 26.5C35.78 26.5 34 28.28 34 30.5C34 32.72 35.78 34.5 38 34.5ZM41 36.5H35C32.02 36.5 29.58 34.34 29.1 31.5H25.1C25.5 35.52 28.28 38.8 32 39.98V44.5H44V39.5C44 37.84 42.66 36.5 41 36.5Z" stroke="#D87053" stroke-width="1.5"/>
</svg>
