<svg width="165" height="29" viewBox="0 0 165 29" fill="none" xmlns="http://www.w3.org/2000/svg">
<rect x="0.732422" y="0.902344" width="61.6" height="28" fill="#C4C4C4"/>
<path d="M13.231 9.89225C14.6248 9.89225 15.695 10.2805 16.4417 11.0571C17.1883 11.8336 17.5617 12.9486 17.5617 14.4021C17.5617 16.1045 17.1435 17.4087 16.3073 18.3147C15.471 19.2206 14.2763 19.6736 12.7233 19.6736C12.2554 19.6736 11.6929 19.6636 11.0358 19.6437C10.3887 19.6238 9.83119 19.5989 9.36328 19.5691L9.46781 16.7019L9.36328 9.95199L13.231 9.89225ZM13.0817 18.1056C14.6646 18.1056 15.4561 17.0254 15.4561 14.8651C15.4561 13.6903 15.2619 12.8391 14.8737 12.3115C14.4954 11.7739 13.898 11.5051 13.0817 11.5051C12.554 11.5051 11.9915 11.5299 11.3942 11.5797L11.3046 16.5227L11.3494 18.0011C12.0463 18.0707 12.6237 18.1056 13.0817 18.1056Z" fill="white"/>
<path d="M29.169 19.5691H27.377L27.2276 16.6571L26.8842 12.9536H26.7348L24.5844 18.5536H23.0164L21.0602 12.9536H20.9258L20.5524 16.4629L20.3434 19.5691H18.641L19.6116 9.95199H21.9412L22.3295 11.3707L23.8527 15.9253H23.9871L25.585 11.3707L26.018 9.95199H28.3028L29.169 19.5691Z" fill="white"/>
<path d="M34.9015 9.83252C35.8373 9.83252 36.6786 10.0267 37.4252 10.4149L37.0668 12.1024L36.9026 12.1771C36.6039 11.968 36.2754 11.8037 35.917 11.6843C35.5586 11.5648 35.1902 11.5051 34.8119 11.5051C33.229 11.5051 32.4375 12.5454 32.4375 14.6261C32.4375 15.7511 32.6416 16.5973 33.0498 17.1648C33.4679 17.7223 34.0752 18.0011 34.8716 18.0011C35.24 18.0011 35.6183 17.9463 36.0066 17.8368C36.4048 17.7173 36.7632 17.558 37.0818 17.3589L37.261 17.4635L37.0967 19.1808C36.3401 19.5292 35.5436 19.7035 34.7074 19.7035C33.2738 19.7035 32.1787 19.2853 31.422 18.4491C30.6754 17.6128 30.302 16.4131 30.302 14.8501C30.302 13.2572 30.7003 12.0227 31.4967 11.1467C32.3031 10.2706 33.438 9.83252 34.9015 9.83252Z" fill="white"/>
<path d="M46.2612 19.5691H44.2004L43.9615 18.3147L43.7076 17.4187L41.826 17.3739L40.1684 17.4187L39.9145 18.2101L39.6607 19.5691H37.6596L40.9151 9.95199H43.3193L46.2612 19.5691ZM43.2745 15.8507L42.1396 11.8485H42.0052L40.6911 15.8507L41.9753 15.8805L43.2745 15.8507Z" fill="white"/>
<rect x="62.333" y="0.902344" width="102.667" height="28" fill="#525252"/>
<path d="M83.9864 9.93685C84.9919 9.93685 85.7635 10.1907 86.3011 10.6984C86.8486 11.2062 87.1224 11.9329 87.1224 12.8787C87.1224 13.6055 86.9631 14.2426 86.6445 14.7902C86.3259 15.3278 85.868 15.7459 85.2707 16.0446C84.6833 16.3432 83.9914 16.4926 83.1949 16.4926H82.2392V16.5224L82.3288 19.5688H80.2979L80.4024 16.7016L80.2979 9.95178L83.9864 9.93685ZM83.6429 15.0142C84.5588 14.7553 85.0168 14.1032 85.0168 13.0579C85.0168 12.5203 84.8774 12.1221 84.5987 11.8632C84.3299 11.5944 83.9117 11.4501 83.3443 11.4302L82.3288 11.4899L82.2691 14.9544L83.6429 15.0142Z" fill="white"/>
<path d="M93.5995 15.7459C94.376 16.9804 95.1476 18.0954 95.9142 19.091L95.8843 19.315C95.2372 19.544 94.5751 19.6784 93.8982 19.7182L93.6891 19.5539C92.9723 18.3194 92.3899 17.2442 91.9419 16.3283H90.4934V16.5224L90.583 19.5688H88.552L88.6566 16.7016L88.552 9.95178L92.2406 9.93685C93.2461 9.93685 94.0226 10.1857 94.5702 10.6835C95.1177 11.1713 95.3915 11.8732 95.3915 12.7891C95.3915 13.4064 95.2322 13.9738 94.9136 14.4915C94.605 14.9992 94.167 15.4174 93.5995 15.7459ZM90.5232 14.7603L92.0016 14.82C92.8478 14.5313 93.271 13.9191 93.271 12.9832C93.271 12.4755 93.1316 12.0972 92.8528 11.8483C92.584 11.5895 92.1659 11.4501 91.5984 11.4302L90.583 11.4899L90.5232 14.7603Z" fill="white"/>
<path d="M101.023 9.81738C102.376 9.81738 103.417 10.2305 104.144 11.0568C104.88 11.8732 105.249 13.038 105.249 14.5512C105.249 16.2039 104.85 17.4782 104.054 18.3742C103.258 19.2702 102.133 19.7182 100.679 19.7182C99.3351 19.7182 98.2947 19.3 97.558 18.4638C96.8312 17.6176 96.4679 16.4229 96.4679 14.8798C96.4679 13.257 96.8611 12.0076 97.6476 11.1315C98.444 10.2554 99.569 9.81738 101.023 9.81738ZM100.843 11.4451C100.047 11.4451 99.4695 11.694 99.1111 12.1918C98.7527 12.6896 98.5735 13.5009 98.5735 14.6259C98.5735 15.9102 98.7477 16.8261 99.0961 17.3736C99.4545 17.9212 100.042 18.195 100.858 18.195C101.655 18.195 102.232 17.9461 102.591 17.4483C102.949 16.9406 103.128 16.1143 103.128 14.9694C103.128 13.705 102.949 12.804 102.591 12.2664C102.242 11.7189 101.66 11.4451 100.843 11.4451Z" fill="white"/>
<path d="M112.481 10.1161L112.362 11.6243L110.555 11.5347H109.958L109.883 16.5224L109.972 19.5688H107.942L108.046 16.7016L107.971 11.5347H107.374L105.537 11.6243L105.403 11.46L105.537 9.95178H112.362L112.481 10.1161Z" fill="white"/>
<path d="M119.844 17.8963L119.963 18.0606L119.829 19.5688H113.796L113.9 16.7016L113.796 9.95178H119.889L120.008 10.1161L119.859 11.6243L117.559 11.5497L115.827 11.5646L115.782 13.8792L117.44 13.9091L119.007 13.8643L119.127 14.0136L118.993 15.5219L117.29 15.4771L115.752 15.492L115.737 16.5224L115.782 17.971L117.469 17.9859L119.844 17.8963Z" fill="white"/>
<path d="M125.057 9.83232C125.993 9.83232 126.834 10.0265 127.581 10.4147L127.222 12.1022L127.058 12.1768C126.759 11.9678 126.431 11.8035 126.072 11.6841C125.714 11.5646 125.346 11.5048 124.967 11.5048C123.384 11.5048 122.593 12.5452 122.593 14.6259C122.593 15.7509 122.797 16.5971 123.205 17.1646C123.623 17.7221 124.231 18.0008 125.027 18.0008C125.395 18.0008 125.774 17.9461 126.162 17.8366C126.56 17.7171 126.919 17.5578 127.237 17.3587L127.416 17.4632L127.252 19.1806C126.495 19.529 125.699 19.7032 124.863 19.7032C123.429 19.7032 122.334 19.2851 121.577 18.4488C120.831 17.6126 120.457 16.4129 120.457 14.8499C120.457 13.257 120.856 12.0225 121.652 11.1465C122.458 10.2704 123.593 9.83232 125.057 9.83232Z" fill="white"/>
<path d="M135.056 10.1161L134.937 11.6243L133.13 11.5347H132.533L132.458 16.5224L132.547 19.5688H130.517L130.621 16.7016L130.546 11.5347H129.949L128.112 11.6243L127.978 11.46L128.112 9.95178H134.937L135.056 10.1161Z" fill="white"/>
<path d="M142.419 17.8963L142.538 18.0606L142.404 19.5688H136.371L136.475 16.7016L136.371 9.95178H142.464L142.583 10.1161L142.434 11.6243L140.134 11.5497L138.402 11.5646L138.357 13.8792L140.014 13.9091L141.583 13.8643L141.702 14.0136L141.568 15.5219L139.865 15.4771L138.327 15.492L138.312 16.5224L138.357 17.971L140.044 17.9859L142.419 17.8963Z" fill="white"/>
<path d="M147.836 9.89205C149.23 9.89205 150.3 10.2803 151.047 11.0568C151.794 11.8334 152.167 12.9484 152.167 14.4019C152.167 16.1043 151.749 17.4085 150.913 18.3144C150.076 19.2204 148.882 19.6734 147.329 19.6734C146.861 19.6734 146.298 19.6634 145.641 19.6435C144.994 19.6236 144.437 19.5987 143.969 19.5688L144.073 16.7016L143.969 9.95178L147.836 9.89205ZM147.687 18.1054C149.27 18.1054 150.061 17.0252 150.061 14.8648C150.061 13.6901 149.867 12.8389 149.479 12.3112C149.101 11.7736 148.503 11.5048 147.687 11.5048C147.159 11.5048 146.597 11.5297 146 11.5795L145.91 16.5224L145.955 18.0008C146.652 18.0705 147.229 18.1054 147.687 18.1054Z" fill="white"/>
<circle cx="62.3328" cy="13.9686" r="11.2" fill="white"/>
<path fill-rule="evenodd" clip-rule="evenodd" d="M62.3324 6.50293C60.2439 6.50293 58.5508 8.28116 58.5508 10.4747V13.3015H57.4958C57.0742 13.3015 56.7324 13.6604 56.7324 14.1032V19.546C56.7324 20.59 57.5382 21.4363 58.5322 21.4363H66.1326C67.1266 21.4363 67.9324 20.59 67.9324 19.546V14.1032C67.9324 13.6604 67.5907 13.3015 67.1691 13.3015H66.114V10.4747C66.114 8.28116 64.4209 6.50293 62.3324 6.50293ZM60.5864 10.4747C60.5864 9.46193 61.3681 8.64091 62.3324 8.64091C63.2967 8.64091 64.0784 9.46193 64.0784 10.4747V13.0342H60.5864V10.4747ZM62.3324 15.5546C62.9048 15.5546 63.3688 16.042 63.3688 16.6432C63.3688 16.9559 63.2433 17.2378 63.0423 17.4363C63.0768 17.5277 63.0958 17.6274 63.0958 17.7318V19.1832C63.0958 19.626 62.754 19.9849 62.3324 19.9849C61.9109 19.9849 61.5691 19.626 61.5691 19.1832V17.7318C61.5691 17.6274 61.5881 17.5278 61.6226 17.4363C61.4215 17.2378 61.296 16.9559 61.296 16.6432C61.296 16.042 61.76 15.5546 62.3324 15.5546Z" fill="#C4C4C4"/>
</svg>
