<svg width="67" height="68" viewBox="0 0 67 68" fill="none" xmlns="http://www.w3.org/2000/svg">
<path d="M0 16C0 7.16344 7.16345 0 16 0H50.3889C59.2254 0 66.3889 7.16344 66.3889 16V52C66.3889 60.8366 59.2254 68 50.3889 68H16C7.16344 68 0 60.8366 0 52V16Z" fill="#231F20"/>
<path d="M22.0283 36.3122H16V52H31.0708V46.8628H22.0283V36.3122Z" fill="white"/>
<path d="M16 16V31.175H22.0283V21.1471H31.0708V16H16Z" fill="white"/>
<path d="M50.3889 30.189H42.8045V22.5472H35.7487V30.189H28.1643V37.2983H35.7487V44.94H42.8045V37.2983H50.3889V30.189Z" fill="white"/>
</svg>
