<svg width="40" height="40" viewBox="0 0 40 40" fill="none" xmlns="http://www.w3.org/2000/svg">
<g filter="url(#filter0_b_361:8335)">
<path d="M0 20C0 8.95431 8.95431 0 20 0V0C31.0457 0 40 8.95431 40 20V20C40 31.0457 31.0457 40 20 40V40C8.95431 40 0 31.0457 0 20V20Z" fill="white" fill-opacity="0.85"/>
<path d="M23.1201 13.32H25.0001V10.14C24.0899 10.0454 23.1753 9.99865 22.2601 10C19.5401 10 17.6801 11.66 17.6801 14.7V17.32H14.6101V20.88H17.6801V30H21.3601V20.88H24.4201L24.8801 17.32H21.3601V15.05C21.3601 14 21.6401 13.32 23.1201 13.32Z" fill="#054A91"/>
<path d="M20 39C9.50659 39 1 30.4934 1 20H-1C-1 31.598 8.40202 41 20 41V39ZM39 20C39 30.4934 30.4934 39 20 39V41C31.598 41 41 31.598 41 20H39ZM20 1C30.4934 1 39 9.50659 39 20H41C41 8.40202 31.598 -1 20 -1V1ZM20 -1C8.40202 -1 -1 8.40202 -1 20H1C1 9.50659 9.50659 1 20 1V-1Z" fill="#054A91"/>
</g>
<defs>
<filter id="filter0_b_361:8335" x="-15" y="-15" width="70" height="70" filterUnits="userSpaceOnUse" color-interpolation-filters="sRGB">
<feFlood flood-opacity="0" result="BackgroundImageFix"/>
<feGaussianBlur in="BackgroundImage" stdDeviation="7.5"/>
<feComposite in2="SourceAlpha" operator="in" result="effect1_backgroundBlur_361:8335"/>
<feBlend mode="normal" in="SourceGraphic" in2="effect1_backgroundBlur_361:8335" result="shape"/>
</filter>
</defs>
</svg>
