<svg width="94" height="20" viewBox="0 0 94 20" fill="none" xmlns="http://www.w3.org/2000/svg">
<path d="M24.5669 16V5.2627H31.9277V7.0791H26.7349V9.62061H31.2173V11.437H26.7349V16H24.5669ZM35.2456 10.5947L33.3779 10.2578C33.5879 9.50586 33.9492 8.94922 34.4619 8.58789C34.9746 8.22656 35.7363 8.0459 36.7471 8.0459C37.665 8.0459 38.3486 8.15576 38.7979 8.37549C39.2471 8.59033 39.562 8.86621 39.7427 9.20312C39.9282 9.53516 40.021 10.1479 40.021 11.0415L39.999 13.4438C39.999 14.1274 40.0308 14.6328 40.0942 14.96C40.1626 15.2822 40.2871 15.6289 40.4678 16H38.4316C38.3779 15.8633 38.312 15.6606 38.2339 15.3921C38.1997 15.27 38.1753 15.1895 38.1606 15.1504C37.8091 15.4922 37.4331 15.7485 37.0327 15.9194C36.6323 16.0903 36.2051 16.1758 35.751 16.1758C34.9502 16.1758 34.3179 15.9585 33.854 15.5239C33.395 15.0894 33.1655 14.54 33.1655 13.876C33.1655 13.4365 33.2705 13.0459 33.4805 12.7041C33.6904 12.3574 33.9834 12.0938 34.3594 11.9131C34.7402 11.7275 35.2871 11.5664 36 11.4297C36.9619 11.249 37.6284 11.0806 37.9995 10.9243V10.7192C37.9995 10.3237 37.9019 10.043 37.7065 9.87695C37.5112 9.70605 37.1426 9.62061 36.6006 9.62061C36.2344 9.62061 35.9487 9.69385 35.7437 9.84033C35.5386 9.98193 35.3726 10.2334 35.2456 10.5947ZM37.9995 12.2646C37.7358 12.3525 37.3184 12.4575 36.7471 12.5796C36.1758 12.7017 35.8022 12.8213 35.6265 12.9385C35.3579 13.1289 35.2236 13.3706 35.2236 13.6636C35.2236 13.9517 35.3311 14.2007 35.5459 14.4106C35.7607 14.6206 36.0342 14.7256 36.3662 14.7256C36.7373 14.7256 37.0913 14.6035 37.4282 14.3594C37.6772 14.1738 37.8408 13.9468 37.9189 13.6782C37.9727 13.5024 37.9995 13.168 37.9995 12.6748V12.2646ZM48.8394 10.5215L46.8105 10.8877C46.7422 10.4824 46.5859 10.1772 46.3418 9.97217C46.1025 9.76709 45.79 9.66455 45.4043 9.66455C44.8916 9.66455 44.4814 9.84277 44.1738 10.1992C43.8711 10.5508 43.7197 11.1416 43.7197 11.9717C43.7197 12.8945 43.8735 13.5464 44.1812 13.9272C44.4937 14.3081 44.9111 14.4985 45.4336 14.4985C45.8242 14.4985 46.144 14.3887 46.3931 14.1689C46.6421 13.9443 46.8179 13.561 46.9204 13.019L48.9419 13.3633C48.7319 14.291 48.3291 14.9917 47.7334 15.4653C47.1377 15.939 46.3394 16.1758 45.3384 16.1758C44.2007 16.1758 43.2925 15.8169 42.6138 15.0991C41.9399 14.3813 41.603 13.3877 41.603 12.1182C41.603 10.834 41.9424 9.83545 42.6211 9.12256C43.2998 8.40479 44.2178 8.0459 45.375 8.0459C46.3223 8.0459 47.0742 8.25098 47.6309 8.66113C48.1924 9.06641 48.5952 9.68652 48.8394 10.5215ZM54.9111 13.5244L56.9619 13.8687C56.6982 14.6206 56.2808 15.1943 55.7095 15.5898C55.1431 15.9805 54.4326 16.1758 53.5781 16.1758C52.2256 16.1758 51.2246 15.7339 50.5752 14.8501C50.0625 14.1421 49.8062 13.2485 49.8062 12.1694C49.8062 10.8804 50.1431 9.87207 50.8169 9.14453C51.4907 8.41211 52.3428 8.0459 53.373 8.0459C54.5303 8.0459 55.4434 8.4292 56.1123 9.1958C56.7812 9.95752 57.1011 11.127 57.0718 12.7041H51.9155C51.9302 13.3145 52.0962 13.7905 52.4136 14.1323C52.731 14.4692 53.1265 14.6377 53.6001 14.6377C53.9224 14.6377 54.1934 14.5498 54.4131 14.374C54.6328 14.1982 54.7988 13.915 54.9111 13.5244ZM55.0283 11.4443C55.0137 10.8486 54.8599 10.397 54.5669 10.0894C54.2739 9.77686 53.9175 9.62061 53.4976 9.62061C53.0483 9.62061 52.6772 9.78418 52.3843 10.1113C52.0913 10.4385 51.9473 10.8828 51.9521 11.4443H55.0283ZM58.6685 16V5.2627H60.7266V9.12988C61.3613 8.40723 62.1133 8.0459 62.9824 8.0459C63.9297 8.0459 64.7134 8.39014 65.3335 9.07861C65.9536 9.76221 66.2637 10.7461 66.2637 12.0303C66.2637 13.3584 65.9463 14.3813 65.3115 15.0991C64.6816 15.8169 63.915 16.1758 63.0117 16.1758C62.5674 16.1758 62.1279 16.0659 61.6934 15.8462C61.2637 15.6216 60.8926 15.292 60.5801 14.8574V16H58.6685ZM60.7119 11.9424C60.7119 12.748 60.8389 13.3438 61.0928 13.7295C61.4492 14.2764 61.9229 14.5498 62.5137 14.5498C62.9678 14.5498 63.3535 14.3569 63.6709 13.9712C63.9932 13.5806 64.1543 12.9678 64.1543 12.1328C64.1543 11.2441 63.9932 10.6045 63.6709 10.2139C63.3486 9.81836 62.936 9.62061 62.4331 9.62061C61.9399 9.62061 61.5298 9.81348 61.2026 10.1992C60.8755 10.5801 60.7119 11.1611 60.7119 11.9424ZM67.4502 12.001C67.4502 11.3174 67.6187 10.6558 67.9556 10.0161C68.2925 9.37646 68.7686 8.88818 69.3838 8.55127C70.0039 8.21436 70.6948 8.0459 71.4565 8.0459C72.6333 8.0459 73.5977 8.4292 74.3496 9.1958C75.1016 9.95752 75.4775 10.9219 75.4775 12.0889C75.4775 13.2656 75.0967 14.2422 74.335 15.0186C73.5781 15.79 72.6235 16.1758 71.4712 16.1758C70.7583 16.1758 70.0771 16.0146 69.4277 15.6924C68.7832 15.3701 68.2925 14.8989 67.9556 14.2788C67.6187 13.6538 67.4502 12.8945 67.4502 12.001ZM69.5596 12.1108C69.5596 12.8823 69.7427 13.4731 70.1089 13.8833C70.4751 14.2935 70.9268 14.4985 71.4639 14.4985C72.001 14.4985 72.4502 14.2935 72.8115 13.8833C73.1777 13.4731 73.3608 12.8774 73.3608 12.0962C73.3608 11.3345 73.1777 10.7485 72.8115 10.3384C72.4502 9.92822 72.001 9.72314 71.4639 9.72314C70.9268 9.72314 70.4751 9.92822 70.1089 10.3384C69.7427 10.7485 69.5596 11.3394 69.5596 12.1108ZM76.6201 12.001C76.6201 11.3174 76.7886 10.6558 77.1255 10.0161C77.4624 9.37646 77.9385 8.88818 78.5537 8.55127C79.1738 8.21436 79.8647 8.0459 80.6265 8.0459C81.8032 8.0459 82.7676 8.4292 83.5195 9.1958C84.2715 9.95752 84.6475 10.9219 84.6475 12.0889C84.6475 13.2656 84.2666 14.2422 83.5049 15.0186C82.748 15.79 81.7935 16.1758 80.6411 16.1758C79.9282 16.1758 79.2471 16.0146 78.5977 15.6924C77.9531 15.3701 77.4624 14.8989 77.1255 14.2788C76.7886 13.6538 76.6201 12.8945 76.6201 12.001ZM78.7295 12.1108C78.7295 12.8823 78.9126 13.4731 79.2788 13.8833C79.645 14.2935 80.0967 14.4985 80.6338 14.4985C81.1709 14.4985 81.6201 14.2935 81.9814 13.8833C82.3477 13.4731 82.5308 12.8774 82.5308 12.0962C82.5308 11.3345 82.3477 10.7485 81.9814 10.3384C81.6201 9.92822 81.1709 9.72314 80.6338 9.72314C80.0967 9.72314 79.645 9.92822 79.2788 10.3384C78.9126 10.7485 78.7295 11.3394 78.7295 12.1108ZM86.1929 16V5.2627H88.251V10.9609L90.6606 8.22168H93.1948L90.5361 11.0635L93.3853 16H91.166L89.2104 12.5063L88.251 13.5098V16H86.1929Z" fill="white"/>
<path d="M9.32 6.55294L8.95647 10H6.20118V20H2.06235V10H0V6.55294H2.06235V4.47765C2.06235 1.67412 3.22824 0 6.54235 0H9.29647V3.44706H7.57294C6.28706 3.44706 6.20118 3.93294 6.20118 4.83059V6.55294H9.32V6.55294Z" fill="white"/>
</svg>
