<svg width="57" height="56" viewBox="0 0 57 56" fill="none" xmlns="http://www.w3.org/2000/svg">
<path d="M0.5625 0.0625H56.4375V55.9375H0.5625V0.0625Z" stroke="white" stroke-width="0.125"/>
<path d="M33.75 23.625H40.75" stroke="white" stroke-width="2" stroke-linecap="round" stroke-linejoin="round"/>
<path d="M16.25 23.625H23.25" stroke="white" stroke-width="2" stroke-linecap="round" stroke-linejoin="round"/>
<path d="M19.75 20.125V27.125" stroke="white" stroke-width="2" stroke-linecap="round" stroke-linejoin="round"/>
<path d="M38.1289 12.1934L18.8759 12.2503C16.2015 12.2505 13.6126 13.1927 11.5638 14.9116C9.51488 16.6304 8.13694 19.0161 7.67181 21.6497L7.67368 21.65L4.09397 40.0607C3.86786 41.3435 4.0566 42.665 4.63276 43.8333C5.20892 45.0015 6.14251 45.9557 7.29792 46.5572C8.45334 47.1587 9.77043 47.3762 11.0579 47.1781C12.3453 46.98 13.5361 46.3767 14.4573 45.4557L14.4569 45.4553L23.9147 35.0003L38.1289 34.9434C41.1457 34.9434 44.039 33.7449 46.1722 31.6117C48.3055 29.4785 49.5039 26.5852 49.5039 23.5684C49.5039 20.5515 48.3055 17.6582 46.1722 15.525C44.039 13.3918 41.1457 12.1934 38.1289 12.1934V12.1934Z" stroke="white" stroke-width="2" stroke-linecap="round" stroke-linejoin="round"/>
<path d="M49.3312 21.5928L52.908 40.0603C53.1341 41.3432 52.9454 42.6647 52.3692 43.8329C51.793 45.0012 50.8594 45.9554 49.704 46.5569C48.5486 47.1583 47.2315 47.3758 45.944 47.1778C44.6566 46.9797 43.4658 46.3763 42.5446 45.4553L42.545 45.4549L33.0938 34.9632" stroke="white" stroke-width="2" stroke-linecap="round" stroke-linejoin="round"/>
</svg>
