<svg width="81" height="19" viewBox="0 0 81 19" fill="none" xmlns="http://www.w3.org/2000/svg">
<path d="M35.2319 11.0522V9.24316H39.9048V13.5205C39.4507 13.96 38.7915 14.3481 37.9272 14.6851C37.0679 15.0171 36.1963 15.1831 35.3125 15.1831C34.1895 15.1831 33.2104 14.9487 32.3755 14.48C31.5405 14.0063 30.9131 13.3325 30.4932 12.4585C30.0732 11.5796 29.8633 10.625 29.8633 9.59473C29.8633 8.47656 30.0977 7.48291 30.5664 6.61377C31.0352 5.74463 31.7212 5.07812 32.6245 4.61426C33.313 4.25781 34.1699 4.07959 35.1953 4.07959C36.5283 4.07959 37.5684 4.36035 38.3154 4.92188C39.0674 5.47852 39.5508 6.25 39.7656 7.23633L37.6123 7.63916C37.4609 7.11182 37.1753 6.69678 36.7554 6.39404C36.3403 6.08643 35.8203 5.93262 35.1953 5.93262C34.248 5.93262 33.4937 6.23291 32.9321 6.8335C32.3755 7.43408 32.0972 8.3252 32.0972 9.50684C32.0972 10.7812 32.3804 11.7383 32.9468 12.3779C33.5132 13.0127 34.2554 13.3301 35.1733 13.3301C35.6274 13.3301 36.0815 13.2422 36.5356 13.0664C36.9946 12.8857 37.3877 12.6685 37.7148 12.4146V11.0522H35.2319ZM41.4209 11.001C41.4209 10.3174 41.5894 9.65576 41.9263 9.01611C42.2632 8.37646 42.7393 7.88818 43.3545 7.55127C43.9746 7.21436 44.6655 7.0459 45.4272 7.0459C46.604 7.0459 47.5684 7.4292 48.3203 8.1958C49.0723 8.95752 49.4482 9.92188 49.4482 11.0889C49.4482 12.2656 49.0674 13.2422 48.3057 14.0186C47.5488 14.79 46.5942 15.1758 45.4419 15.1758C44.729 15.1758 44.0479 15.0146 43.3984 14.6924C42.7539 14.3701 42.2632 13.8989 41.9263 13.2788C41.5894 12.6538 41.4209 11.8945 41.4209 11.001ZM43.5303 11.1108C43.5303 11.8823 43.7134 12.4731 44.0796 12.8833C44.4458 13.2935 44.8975 13.4985 45.4346 13.4985C45.9717 13.4985 46.4209 13.2935 46.7822 12.8833C47.1484 12.4731 47.3315 11.8774 47.3315 11.0962C47.3315 10.3345 47.1484 9.74854 46.7822 9.33838C46.4209 8.92822 45.9717 8.72314 45.4346 8.72314C44.8975 8.72314 44.4458 8.92822 44.0796 9.33838C43.7134 9.74854 43.5303 10.3394 43.5303 11.1108ZM50.5908 11.001C50.5908 10.3174 50.7593 9.65576 51.0962 9.01611C51.4331 8.37646 51.9092 7.88818 52.5244 7.55127C53.1445 7.21436 53.8354 7.0459 54.5972 7.0459C55.7739 7.0459 56.7383 7.4292 57.4902 8.1958C58.2422 8.95752 58.6182 9.92188 58.6182 11.0889C58.6182 12.2656 58.2373 13.2422 57.4756 14.0186C56.7188 14.79 55.7642 15.1758 54.6118 15.1758C53.8989 15.1758 53.2178 15.0146 52.5684 14.6924C51.9238 14.3701 51.4331 13.8989 51.0962 13.2788C50.7593 12.6538 50.5908 11.8945 50.5908 11.001ZM52.7002 11.1108C52.7002 11.8823 52.8833 12.4731 53.2495 12.8833C53.6157 13.2935 54.0674 13.4985 54.6045 13.4985C55.1416 13.4985 55.5908 13.2935 55.9521 12.8833C56.3184 12.4731 56.5015 11.8774 56.5015 11.0962C56.5015 10.3345 56.3184 9.74854 55.9521 9.33838C55.5908 8.92822 55.1416 8.72314 54.6045 8.72314C54.0674 8.72314 53.6157 8.92822 53.2495 9.33838C52.8833 9.74854 52.7002 10.3394 52.7002 11.1108ZM60.0464 15.5127L62.3975 15.7983C62.4365 16.0718 62.5269 16.2598 62.6685 16.3623C62.8638 16.5088 63.1714 16.582 63.5913 16.582C64.1284 16.582 64.5312 16.5015 64.7998 16.3403C64.9805 16.2329 65.1172 16.0596 65.21 15.8203C65.2734 15.6494 65.3052 15.3345 65.3052 14.8755V13.7402C64.6899 14.5801 63.9136 15 62.9761 15C61.9312 15 61.1035 14.5581 60.4932 13.6743C60.0146 12.9761 59.7754 12.1069 59.7754 11.0669C59.7754 9.76318 60.0879 8.76709 60.7129 8.07861C61.3428 7.39014 62.124 7.0459 63.0566 7.0459C64.0186 7.0459 64.812 7.46826 65.437 8.31299V7.22168H67.3633V14.2017C67.3633 15.1196 67.2876 15.8057 67.1362 16.2598C66.9849 16.7139 66.7725 17.0703 66.499 17.3291C66.2256 17.5879 65.8594 17.7905 65.4004 17.937C64.9463 18.0835 64.3701 18.1567 63.6719 18.1567C62.3535 18.1567 61.4185 17.9297 60.8667 17.4756C60.3149 17.0264 60.0391 16.4551 60.0391 15.7617C60.0391 15.6934 60.0415 15.6104 60.0464 15.5127ZM61.8848 10.9497C61.8848 11.7749 62.0435 12.3804 62.3608 12.7661C62.6831 13.147 63.0786 13.3374 63.5474 13.3374C64.0503 13.3374 64.4751 13.1421 64.8218 12.7515C65.1685 12.356 65.3418 11.7725 65.3418 11.001C65.3418 10.1953 65.1758 9.59717 64.8438 9.20654C64.5117 8.81592 64.0918 8.62061 63.584 8.62061C63.0908 8.62061 62.6831 8.81348 62.3608 9.19922C62.0435 9.58008 61.8848 10.1636 61.8848 10.9497ZM69.4067 15V4.2627H71.4648V15H69.4067ZM78.0859 12.5244L80.1367 12.8687C79.873 13.6206 79.4556 14.1943 78.8843 14.5898C78.3179 14.9805 77.6074 15.1758 76.7529 15.1758C75.4004 15.1758 74.3994 14.7339 73.75 13.8501C73.2373 13.1421 72.981 12.2485 72.981 11.1694C72.981 9.88037 73.3179 8.87207 73.9917 8.14453C74.6655 7.41211 75.5176 7.0459 76.5479 7.0459C77.7051 7.0459 78.6182 7.4292 79.2871 8.1958C79.9561 8.95752 80.2759 10.127 80.2466 11.7041H75.0903C75.105 12.3145 75.271 12.7905 75.5884 13.1323C75.9058 13.4692 76.3013 13.6377 76.7749 13.6377C77.0972 13.6377 77.3682 13.5498 77.5879 13.374C77.8076 13.1982 77.9736 12.915 78.0859 12.5244ZM78.2031 10.4443C78.1885 9.84863 78.0347 9.39697 77.7417 9.08936C77.4487 8.77686 77.0923 8.62061 76.6724 8.62061C76.2231 8.62061 75.8521 8.78418 75.5591 9.11133C75.2661 9.43848 75.1221 9.88281 75.127 10.4443H78.2031Z" fill="white"/>
<path d="M17.2437 7.40734H8.99998V10.7943H13.7093C13.5077 11.8905 12.8883 12.8146 11.9642 13.434L14.7907 15.6314C16.4473 14.1075 17.401 11.8659 17.401 9.20158C17.401 8.57728 17.3469 7.98248 17.2437 7.40734Z" fill="white"/>
<path d="M11.9642 13.434C11.1826 13.96 10.1798 14.2697 9.00001 14.2697C6.71911 14.2697 4.79214 12.7311 4.10394 10.6616L1.17908 12.9326C2.61939 15.7887 5.57866 17.75 9.00001 17.75C11.3645 17.75 13.3455 16.9684 14.7907 15.6314L11.9642 13.434Z" fill="white"/>
<path d="M4.10393 7.33851L1.17907 5.07236C0.589185 6.25213 0.25 7.58921 0.25 9.00003C0.25 10.4108 0.589185 11.7479 1.17907 12.9277L4.10394 10.6616C3.92697 10.1356 3.82865 9.57517 3.82865 9.00003C3.82865 8.42489 3.92697 7.86449 4.10393 7.33851Z" fill="white"/>
<path d="M9.00001 0.25C5.57866 0.25 2.61938 2.2114 1.17907 5.07236L4.10393 7.33851C4.79213 5.26899 6.71911 3.73034 9.00001 3.73034C10.283 3.73034 11.4382 4.17275 12.3427 5.03792L14.8546 2.52598C13.3406 1.11517 11.3596 0.25 9.00001 0.25Z" fill="white"/>
</svg>
