<svg width="57" height="56" viewBox="0 0 57 56" fill="none" xmlns="http://www.w3.org/2000/svg">
<path d="M47.75 17.5H9.25C8.2835 17.5 7.5 18.2835 7.5 19.25V26.25C7.5 27.2165 8.2835 28 9.25 28H47.75C48.7165 28 49.5 27.2165 49.5 26.25V19.25C49.5 18.2835 48.7165 17.5 47.75 17.5Z" stroke="white" stroke-width="2" stroke-linecap="round" stroke-linejoin="round"/>
<path d="M46 28V43.75C46 44.2141 45.8156 44.6592 45.4874 44.9874C45.1592 45.3156 44.7141 45.5 44.25 45.5H12.75C12.2859 45.5 11.8408 45.3156 11.5126 44.9874C11.1844 44.6592 11 44.2141 11 43.75V28" stroke="white" stroke-width="2" stroke-linecap="round" stroke-linejoin="round"/>
<path d="M28.5 17.5V45.5" stroke="white" stroke-width="2" stroke-linecap="round" stroke-linejoin="round"/>
<path d="M38.3995 15.0247C35.9246 17.4995 28.5 17.4995 28.5 17.4995C28.5 17.4995 28.5 10.0749 30.9749 7.60003C31.9596 6.61639 33.2947 6.06406 34.6866 6.06445C36.0784 6.06485 37.4132 6.61794 38.3974 7.60214C39.3816 8.58634 39.9347 9.92109 39.9351 11.313C39.9355 12.7048 39.3831 14.0399 38.3995 15.0247V15.0247Z" stroke="white" stroke-width="2" stroke-linecap="round" stroke-linejoin="round"/>
<path d="M18.6005 15.0247C21.0754 17.4995 28.5 17.4995 28.5 17.4995C28.5 17.4995 28.5 10.0749 26.0251 7.60003C25.0404 6.61639 23.7053 6.06406 22.3134 6.06445C20.9216 6.06485 19.5868 6.61794 18.6026 7.60214C17.6184 8.58634 17.0653 9.92109 17.0649 11.313C17.0645 12.7048 17.6169 14.0399 18.6005 15.0247V15.0247Z" stroke="white" stroke-width="2" stroke-linecap="round" stroke-linejoin="round"/>
</svg>
