<svg width="48" height="49" viewBox="0 0 48 49" fill="none" xmlns="http://www.w3.org/2000/svg">
<path d="M24 42.5C33.9411 42.5 42 34.4411 42 24.5C42 14.5589 33.9411 6.5 24 6.5C14.0589 6.5 6 14.5589 6 24.5C6 34.4411 14.0589 42.5 24 42.5Z" stroke="#D87053" stroke-width="2" stroke-miterlimit="10"/>
<path d="M9.29785 34.8864L11.4306 33.599C11.6591 33.461 11.8403 33.2569 11.9502 33.0137C12.0601 32.7705 12.0936 32.4996 12.0461 32.237L10.8348 25.5361C10.7817 25.2418 10.8302 24.9382 10.9724 24.6751L12.9759 20.9705C13.059 20.8169 13.1718 20.6814 13.3077 20.5718L16.3745 18.0986C16.5779 17.9345 16.8255 17.8347 17.0857 17.8118C17.346 17.7888 17.6072 17.8438 17.8362 17.9697L19.1851 18.7116C19.4637 18.8649 19.6775 19.1138 19.787 19.4123L20.0446 20.1149C20.1311 20.3508 20.2832 20.557 20.483 20.7092C20.6829 20.8615 20.9221 20.9534 21.1724 20.9742C21.4228 20.9949 21.6739 20.9437 21.8961 20.8264C22.1183 20.7092 22.3023 20.5309 22.4264 20.3125L23.3118 18.7552C23.4004 18.5994 23.5198 18.4634 23.6628 18.3553C23.8057 18.2473 23.9692 18.1695 24.1433 18.1269C24.3173 18.0842 24.4983 18.0775 24.675 18.1072C24.8517 18.1369 25.0205 18.2023 25.1711 18.2994L27.8738 20.0434C28.0971 20.1875 28.3587 20.2607 28.6244 20.2534C28.89 20.246 29.1472 20.1585 29.3622 20.0023C29.5772 19.8462 29.7399 19.6286 29.829 19.3782C29.9181 19.1279 29.9294 18.8564 29.8614 18.5995V18.5995C29.7829 18.3028 29.8104 17.9879 29.9393 17.7093C30.0682 17.4307 30.2904 17.2059 30.5674 17.0737L34.2921 15.296C34.5536 15.1712 34.7666 14.9637 34.8982 14.7056C35.0298 14.4476 35.0727 14.1533 35.0202 13.8684L34.2525 9.70459" stroke="#D87053" stroke-width="2" stroke-linecap="round" stroke-linejoin="round"/>
<path d="M35.8928 38.01L33.1613 35.273C33.0389 35.1504 32.8936 35.0532 32.7336 34.9868C32.5736 34.9205 32.4021 34.8863 32.2289 34.8863H30.0848C29.8956 34.8863 29.7086 34.8455 29.5366 34.7668C29.3646 34.6881 29.2115 34.5732 29.0879 34.43C28.9642 34.2868 28.8728 34.1186 28.82 33.937C28.7672 33.7553 28.7541 33.5644 28.7816 33.3772L29.228 30.3455C29.2583 30.1396 29.337 29.9438 29.4576 29.7741C29.5783 29.6045 29.7374 29.4658 29.9219 29.3696L34.3962 27.0351C34.6333 26.9115 34.9024 26.8628 35.1677 26.8958C35.4331 26.9287 35.6821 27.0416 35.8818 27.2195L40.6142 31.4356" stroke="#D87053" stroke-width="2" stroke-linecap="round" stroke-linejoin="round"/>
</svg>
