<svg width="57" height="56" viewBox="0 0 57 56" fill="none" xmlns="http://www.w3.org/2000/svg">
<path d="M7.5 28H16.25L19.75 22.75L26.75 33.25L30.25 28H35.5" stroke="white" stroke-width="2" stroke-linecap="round" stroke-linejoin="round"/>
<path d="M6.65 20.9986C6.63344 20.7085 6.62511 20.4173 6.625 20.125C6.62545 17.4959 7.53643 14.9482 9.20307 12.9148C10.8697 10.8815 13.1891 9.48817 15.767 8.9717C18.3448 8.45523 21.022 8.84751 23.3433 10.0818C25.6646 11.3162 27.4868 13.3164 28.5 15.7424L28.5 15.7424C29.5132 13.3164 31.3354 11.3162 33.6567 10.0818C35.978 8.84751 38.6552 8.45523 41.233 8.9717C43.8109 9.48817 46.1303 10.8815 47.7969 12.9148C49.4636 14.9481 50.3746 17.4959 50.375 20.125C50.375 35 28.5 47.25 28.5 47.25C28.5 47.25 19.7621 42.3568 13.3313 35.0003" stroke="white" stroke-width="2" stroke-linecap="round" stroke-linejoin="round"/>
</svg>
