<svg width="48" height="49" viewBox="0 0 48 49" fill="none" xmlns="http://www.w3.org/2000/svg">
<path d="M41.3579 12.6401C41.923 11.8836 42.1968 10.9488 42.1289 10.007C42.0611 9.06512 41.6562 8.1792 40.9885 7.51148C40.3208 6.84376 39.4349 6.43891 38.493 6.37107C37.5512 6.30324 36.6164 6.57695 35.8599 7.1421C31.8121 4.3885 26.9304 3.13332 22.0564 3.59291C17.1825 4.05251 12.6215 6.19809 9.1598 9.6598C5.69809 13.1215 3.55251 17.6825 3.09291 22.5564C2.63332 27.4304 3.8885 32.3121 6.6421 36.3599C6.07695 37.1164 5.80324 38.0512 5.87107 38.993C5.93891 39.9349 6.34376 40.8208 7.01148 41.4885C7.6792 42.1562 8.56512 42.5611 9.50698 42.6289C10.4488 42.6968 11.3836 42.423 12.1401 41.8579C16.1879 44.6115 21.0696 45.8667 25.9435 45.4071C30.8175 44.9475 35.3785 42.8019 38.8402 39.3402C42.3019 35.8785 44.4475 31.3175 44.9071 26.4435C45.3667 21.5696 44.1115 16.6879 41.3579 12.6401ZM39.9308 8.56919C40.2862 8.92596 40.5214 9.38478 40.6035 9.88163C40.6857 10.3785 40.6107 10.8886 40.389 11.3407C39.4295 10.1484 38.3441 9.06303 37.1517 8.10351C37.6058 7.88215 38.1176 7.80804 38.6158 7.89152C39.114 7.975 39.5737 8.21191 39.9308 8.56919ZM8.06919 40.4308C7.71378 40.074 7.4786 39.6152 7.39646 39.1184C7.31433 38.6215 7.38933 38.1114 7.61102 37.6593C8.57054 38.8516 9.6559 39.937 10.8483 40.8965C10.394 41.1167 9.8824 41.1902 9.38447 41.1068C8.88653 41.0234 8.42688 40.7871 8.06919 40.4308ZM24 44.0286C20.1376 44.0286 16.362 42.8832 13.1505 40.7374C9.93905 38.5916 7.43602 35.5416 5.95795 31.9733C4.47988 28.4049 4.09315 24.4783 4.84666 20.6902C5.60018 16.902 7.46009 13.4223 10.1912 10.6912C12.9223 7.96009 16.402 6.10018 20.1902 5.34666C23.9783 4.59315 27.9049 4.97988 31.4733 6.45795C35.0416 7.93602 38.0916 10.439 40.2374 13.6505C42.3832 16.862 43.5286 20.6376 43.5286 24.5C43.5286 29.6793 41.4711 34.6465 37.8088 38.3088C34.1465 41.9711 29.1793 44.0286 24 44.0286Z" fill="#D87053"/>
<path d="M36.0172 12.4825C33.2307 9.69056 29.5621 7.95165 25.6369 7.56227C21.7117 7.17289 17.7729 8.15715 14.4923 10.3472C11.2116 12.5373 8.79222 15.7975 7.64666 19.572C6.5011 23.3465 6.7003 27.4015 8.21029 31.0455C9.72029 34.6895 12.4476 37.6969 15.9271 39.5549C19.4066 41.4129 23.4229 42.0064 27.291 41.2341C31.1592 40.4619 34.6397 38.3718 37.1391 35.3202C39.6385 32.2686 41.0019 28.4445 40.997 24.5001C41.0007 22.2675 40.5626 20.0562 39.708 17.9936C38.8533 15.9311 37.599 14.0581 36.0172 12.4825ZM13.5819 35.9769L16.7665 32.7997C16.8727 32.6569 16.9247 32.481 16.9133 32.3035C16.9019 32.1259 16.8278 31.9581 16.7043 31.8301C16.5807 31.702 16.4157 31.622 16.2387 31.6042C16.0616 31.5865 15.884 31.6322 15.7375 31.7331L12.5604 34.9178C9.96096 32.0709 8.51975 28.3551 8.51975 24.5001C8.51975 20.645 9.96096 16.9292 12.5604 14.0823L15.7375 17.267C15.8077 17.3366 15.8909 17.3917 15.9824 17.429C16.074 17.4664 16.1719 17.4854 16.2708 17.4848C16.3696 17.4854 16.4676 17.4664 16.5591 17.429C16.6507 17.3917 16.7339 17.3366 16.8041 17.267C16.8745 17.1971 16.9304 17.1141 16.9685 17.0225C17.0066 16.931 17.0262 16.8328 17.0262 16.7337C17.0262 16.6345 17.0066 16.5364 16.9685 16.4448C16.9304 16.3533 16.8745 16.2702 16.8041 16.2004L13.6194 13.0233C16.4663 10.4239 20.1821 8.98264 24.0372 8.98264C27.8922 8.98264 31.608 10.4239 34.4549 13.0233L31.2327 16.238C31.1623 16.3078 31.1064 16.3909 31.0683 16.4824C31.0301 16.5739 31.0105 16.6721 31.0105 16.7712C31.0105 16.8704 31.0301 16.9686 31.0683 17.0601C31.1064 17.1516 31.1623 17.2347 31.2327 17.3045C31.3029 17.3741 31.3861 17.4292 31.4776 17.4666C31.5691 17.504 31.6671 17.5229 31.766 17.5223C31.8648 17.5229 31.9628 17.504 32.0543 17.4666C32.1458 17.4292 32.2291 17.3741 32.2992 17.3045L35.4764 14.1199C38.0758 16.9667 39.517 20.6825 39.517 24.5376C39.517 28.3927 38.0758 32.1085 35.4764 34.9554L32.2992 31.7707C32.1578 31.6293 31.966 31.5498 31.766 31.5498C31.5659 31.5498 31.3741 31.6293 31.2327 31.7707C31.0913 31.9121 31.0118 32.104 31.0118 32.304C31.0118 32.504 31.0913 32.6958 31.2327 32.8373L34.4173 36.0144C31.5705 38.6138 27.8547 40.055 23.9996 40.055C20.1445 40.055 16.4287 38.6138 13.5819 36.0144V35.9769Z" fill="#D87053"/>
<path fill-rule="evenodd" clip-rule="evenodd" d="M26.7783 25.8782C26.7894 25.8629 26.796 25.8449 26.7974 25.8261L27.4739 16.1826C27.481 16.0826 27.3528 16.0356 27.2935 16.1165L21.5816 23.9158C21.5705 23.931 21.5639 23.9491 21.5626 23.9679L20.886 33.6113C20.879 33.7114 21.0071 33.7583 21.0664 33.6774L26.7783 25.8782ZM22.3815 29.5281C22.3745 29.6281 22.5027 29.6751 22.5619 29.5942L25.1672 26.0368C25.2065 25.9831 25.1834 25.9067 25.1209 25.8838L22.8242 25.0426C22.7617 25.0197 22.6947 25.0631 22.6901 25.1295L22.3815 29.5281ZM23.1927 23.7572C23.1534 23.8109 23.1765 23.8873 23.239 23.9101L25.5357 24.7513C25.5982 24.7742 25.6652 24.7308 25.6698 24.6644L25.9784 20.2659C25.9855 20.1658 25.8573 20.1189 25.798 20.1998L23.1927 23.7572Z" fill="#D87053"/>
</svg>
