<svg width="40" height="40" viewBox="0 0 40 40" fill="none" xmlns="http://www.w3.org/2000/svg">
<path d="M0 20C0 8.95431 8.95431 0 20 0C31.0457 0 40 8.95431 40 20C40 31.0457 31.0457 40 20 40C8.95431 40 0 31.0457 0 20Z" fill="#054A91"/>
<path d="M18.0001 25.5501L16.2301 27.2701C15.766 27.7342 15.1365 27.995 14.4801 27.995C13.8237 27.995 13.1942 27.7342 12.7301 27.2701C12.266 26.806 12.0052 26.1765 12.0052 25.5201C12.0052 24.8637 12.266 24.2342 12.7301 23.7701L17.2701 19.2201C17.7157 18.773 18.3161 18.5144 18.9471 18.4976C19.5781 18.4809 20.1914 18.7073 20.6601 19.1301L20.7801 19.2301C20.9697 19.4157 21.2253 19.5185 21.4907 19.5156C21.7561 19.5128 22.0094 19.4047 22.1951 19.2151C22.3807 19.0255 22.4835 18.7699 22.4806 18.5045C22.4778 18.2391 22.3697 17.9857 22.1801 17.8001C22.1236 17.7271 22.0636 17.657 22.0001 17.5901C21.1464 16.8474 20.0424 16.4569 18.9116 16.4978C17.7809 16.5386 16.7079 17.0077 15.9101 17.8101L11.3101 22.3601C10.5284 23.2109 10.1057 24.3308 10.1302 25.4858C10.1546 26.6409 10.6244 27.7419 11.4413 28.5589C12.2583 29.3758 13.3592 29.8456 14.5143 29.87C15.6694 29.8945 16.7893 29.4717 17.6401 28.6901L19.3701 27.0001C19.5409 26.8137 19.6348 26.5696 19.6329 26.3168C19.631 26.064 19.5334 25.8214 19.3598 25.6376C19.1862 25.4539 18.9494 25.3427 18.6971 25.3264C18.4449 25.3102 18.1958 25.3901 18.0001 25.5501ZM28.6901 11.3101C27.8489 10.4741 26.7111 10.0049 25.5251 10.0049C24.3391 10.0049 23.2013 10.4741 22.3601 11.3101L20.6301 13.0001C20.4593 13.1864 20.3654 13.4306 20.3673 13.6834C20.3692 13.9361 20.4668 14.1788 20.6404 14.3626C20.814 14.5463 21.0507 14.6575 21.303 14.6737C21.5553 14.69 21.8043 14.6101 22.0001 14.4501L23.7301 12.7301C24.1942 12.266 24.8237 12.0052 25.4801 12.0052C26.1365 12.0052 26.766 12.266 27.2301 12.7301C27.6942 13.1942 27.955 13.8237 27.955 14.4801C27.955 15.1365 27.6942 15.766 27.2301 16.2301L22.6901 20.7801C22.2445 21.2272 21.6441 21.4858 21.0131 21.5026C20.3821 21.5193 19.7688 21.2929 19.3001 20.8701L19.1801 20.7701C18.9905 20.5844 18.7348 20.4817 18.4695 20.4845C18.2041 20.4873 17.9507 20.5955 17.7651 20.7851C17.5794 20.9747 17.4767 21.2303 17.4795 21.4957C17.4823 21.7611 17.5905 22.0144 17.7801 22.2001C17.8527 22.2744 17.9295 22.3445 18.0101 22.4101C18.8648 23.1505 19.9683 23.5395 21.0984 23.4987C22.2285 23.4579 23.3011 22.9903 24.1001 22.1901L28.6501 17.6401C29.4914 16.8042 29.9678 15.6693 29.9753 14.4833C29.9828 13.2974 29.5208 12.1566 28.6901 11.3101Z" fill="white"/>
</svg>
