<svg width="211" height="36" viewBox="0 0 211 36" fill="none" xmlns="http://www.w3.org/2000/svg">
<path d="M0 0H18.6526V5.14708H12.3405V36H6.31213V5.14708H0V0Z" fill="white"/>
<path d="M33.8996 36C33.5766 35.0731 33.3515 34.5111 33.3515 31.5826V25.9228C33.3515 22.5801 32.1478 21.3476 29.437 21.3476H27.3232V36H21.2851V0H30.3961C36.6495 0 39.3309 2.72145 39.3309 8.28266V11.1126C39.3309 14.8102 38.0685 17.1767 35.4164 18.3599V18.4585C38.4306 19.6417 39.419 22.3237 39.419 26.0707V31.6319C39.3068 33.1192 39.531 34.6127 40.0747 36H33.8996ZM27.3232 5.14708V16.2005H29.6817C31.9227 16.2005 33.3026 15.2736 33.3026 12.3944V8.87428C33.3026 6.30074 32.324 5.17666 30.2297 5.17666L27.3232 5.14708Z" fill="white"/>
<path d="M62.8668 36H56.7602L55.7816 29.4725H48.3343L47.2871 36H41.7481L47.8939 0H56.7015L62.8668 36ZM49.0976 24.5818H54.9106L52.0628 6.37962H51.9552L49.0976 24.5818Z" fill="white"/>
<path d="M73.3968 29.364H73.5045L78.0062 0H83.5452L77.6245 36H68.6309L62.7005 0H68.7973L73.3968 29.364Z" fill="white"/>
<path d="M106.533 0H112.542V30.8529H122.475V36H106.533V0Z" fill="white"/>
<path d="M125.137 0H131.136V30.8529H141.069V36H125.137V0Z" fill="white"/>
<path d="M143.731 0H149.73V36H143.691L143.731 0Z" fill="white"/>
<path d="M163.205 29.364H163.313L167.863 0H173.412L167.482 36H158.537L152.558 0H158.655L163.205 29.364Z" fill="white"/>
<path d="M182.239 20.3122H176.211V36H191.282V30.8628H182.239V20.3122Z" fill="white"/>
<path d="M176.211 0V15.175H182.239V5.14708H191.282V0H176.211Z" fill="white"/>
<path d="M92.3822 15.175H100.671V20.3122H92.3822V30.8529H102.805V36H86.3538V0H102.805V5.14708H92.3822V15.175Z" fill="white"/>
<path d="M210.6 14.189H203.016V6.54725H195.96V14.189H188.375V21.2983H195.96V28.94H203.016V21.2983H210.6V14.189Z" fill="white"/>
</svg>
