<svg width="357" height="61" viewBox="0 0 357 61" fill="none" xmlns="http://www.w3.org/2000/svg">
<path d="M0 0H31.6191V8.72145H20.919V61H10.7V8.72145H0V0Z" fill="white"/>
<path d="M57.4651 61C56.9176 59.4295 56.5361 58.4771 56.5361 53.5149V43.9247C56.5361 38.2608 54.4956 36.1723 49.9004 36.1723H46.3171V61H36.0816V0H51.5261C62.1266 0 66.6721 4.61134 66.6721 14.0345V18.8296C66.6721 25.095 64.5321 29.1049 60.0364 31.1098V31.2769C65.1459 33.2818 66.8214 37.8264 66.8214 44.1753V53.5985C66.6313 56.1186 67.0113 58.6492 67.9329 61H57.4651ZM46.3171 8.72145V27.4508H50.3151C54.114 27.4508 56.4531 25.8803 56.4531 21.0016V15.037C56.4531 10.6763 54.7942 8.77157 51.2441 8.77157L46.3171 8.72145Z" fill="white"/>
<path d="M106.569 61H96.2175L94.5585 49.9395H81.9342L80.1591 61H70.7696L81.1876 0H96.1179L106.569 61ZM83.2281 41.6524H93.0821L88.2546 10.8099H88.0722L83.2281 41.6524Z" fill="white"/>
<path d="M124.419 49.7557H124.602L132.233 0H141.622L131.586 61H116.34L106.287 0H116.622L124.419 49.7557Z" fill="white"/>
<path d="M180.59 0H190.776V52.2786H207.614V61H180.59V0Z" fill="white"/>
<path d="M212.126 0H222.296V52.2786H239.134V61H212.126V0Z" fill="white"/>
<path d="M243.646 0H253.815V61H243.58L243.646 0Z" fill="white"/>
<path d="M276.658 49.7557H276.841L284.555 0H293.961L283.908 61H268.745L258.609 0H268.944L276.658 49.7557Z" fill="white"/>
<path d="M308.924 34.418H298.705V61H324.253V52.2953H308.924V34.418Z" fill="white"/>
<path d="M298.705 0V25.7132H308.924V8.72145H324.253V0H298.705Z" fill="white"/>
<path d="M156.602 25.7132H170.653V34.418H156.602V52.2786H174.27V61H146.383V0H174.27V8.72145H156.602V25.7132Z" fill="white"/>
<path d="M357 24.0425H344.143V11.0939H332.183V24.0425H319.326V36.0887H332.183V49.0373H344.143V36.0887H357V24.0425Z" fill="white"/>
</svg>
