<svg width="73" height="72" viewBox="0 0 73 72" fill="none" xmlns="http://www.w3.org/2000/svg">
<path d="M32.8053 21.4293H28.9902V16.8264H30.2468C30.6505 16.8264 31.0377 16.6724 31.324 16.398C31.6103 16.1236 31.7723 15.7511 31.7747 15.3619V12.9645C31.7723 12.5753 31.6103 12.2028 31.324 11.9284C31.0377 11.654 30.6505 11.5 30.2468 11.5H19.326C18.9224 11.5 18.5351 11.654 18.2489 11.9284C17.9626 12.2028 17.8006 12.5753 17.7982 12.9645V15.3619C17.8006 15.7511 17.9626 16.1236 18.2489 16.398C18.5351 16.6724 18.9224 16.8264 19.326 16.8264H20.6188V21.4293H16.8037C15.5737 21.4293 14.3941 21.9004 13.5244 22.7391C12.6546 23.5778 12.166 24.7153 12.166 25.9014V52.054C12.166 53.2401 12.6546 54.3776 13.5244 55.2162C14.3941 56.0549 15.5737 56.5261 16.8037 56.5261H16.9936V57.5635C16.9716 57.9412 17.0298 58.3192 17.1646 58.6745C17.2994 59.0298 17.5079 59.3548 17.7775 59.6297C18.047 59.9046 18.3718 60.1235 18.7322 60.2732C19.0925 60.4228 19.4807 60.5 19.873 60.5C20.2653 60.5 20.6535 60.4228 21.0138 60.2732C21.3741 60.1235 21.6989 59.9046 21.9685 59.6297C22.238 59.3548 22.4465 59.0298 22.5813 58.6745C22.7161 58.3192 22.7743 57.9412 22.7523 57.5635V56.4999H26.8567V57.5373C26.8347 57.915 26.8929 58.2931 27.0277 58.6483C27.1625 59.0036 27.371 59.3286 27.6405 59.6035C27.9101 59.8784 28.2349 60.0974 28.5952 60.247C28.9556 60.3967 29.3437 60.4738 29.736 60.4738C30.1284 60.4738 30.5165 60.3967 30.8769 60.247C31.2372 60.0974 31.562 59.8784 31.8316 59.6035C32.1011 59.3286 32.3096 59.0036 32.4444 58.6483C32.5792 58.2931 32.6374 57.915 32.6154 57.5373V56.4999H32.8053C33.4173 56.5045 34.0243 56.3923 34.5912 56.1696C35.158 55.9469 35.6735 55.6182 36.108 55.2025C36.5425 54.7867 36.8874 54.2922 37.1227 53.7473C37.358 53.2025 37.4792 52.6181 37.4792 52.0278V25.8752C37.4756 25.2872 37.3518 24.7056 37.1149 24.1638C36.878 23.6219 36.5326 23.1305 36.0985 22.7175C35.6643 22.3045 35.15 21.9782 34.5849 21.7571C34.0198 21.5361 33.4151 21.4247 32.8053 21.4293ZM19.6063 13.2435H30.0027V15.0829H19.6063V13.2435ZM22.4269 16.8264H27.1821V21.4293H22.4269V16.8264ZM20.9443 57.5373C20.958 57.6809 20.9404 57.8258 20.8928 57.9625C20.8452 58.0992 20.7686 58.2249 20.6677 58.3315C20.5669 58.438 20.4442 58.5231 20.3073 58.5814C20.1705 58.6396 20.0225 58.6697 19.873 58.6697C19.7234 58.6697 19.5754 58.6396 19.4386 58.5814C19.3017 58.5231 19.179 58.438 19.0782 58.3315C18.9774 58.2249 18.9007 58.0992 18.8531 57.9625C18.8055 57.8258 18.788 57.6809 18.8017 57.5373V56.4999H20.9443V57.5373ZM30.8073 57.5373C30.821 57.6809 30.8035 57.8258 30.7559 57.9625C30.7083 58.0992 30.6316 58.2249 30.5308 58.3315C30.43 58.438 30.3073 58.5231 30.1704 58.5814C30.0336 58.6396 29.8856 58.6697 29.736 58.6697C29.5865 58.6697 29.4385 58.6396 29.3017 58.5814C29.1648 58.5231 29.0421 58.438 28.9413 58.3315C28.8405 58.2249 28.7638 58.0992 28.7162 57.9625C28.6686 57.8258 28.6511 57.6809 28.6648 57.5373V56.4999H30.8073V57.5373ZM35.6711 52.0278C35.6711 52.7515 35.373 53.4455 34.8423 53.9572C34.3116 54.4689 33.5919 54.7564 32.8414 54.7564H16.8037C16.0533 54.7564 15.3335 54.4689 14.8029 53.9572C14.2722 53.4455 13.9741 52.7515 13.9741 52.0278V25.8752C13.9741 25.1516 14.2722 24.4575 14.8029 23.9458C15.3335 23.4341 16.0533 23.1466 16.8037 23.1466H32.8053C33.1822 23.142 33.5563 23.21 33.9056 23.3467C34.2549 23.4833 34.5723 23.6859 34.8393 23.9425C35.1062 24.1992 35.3173 24.5046 35.4602 24.841C35.603 25.1774 35.6747 25.5379 35.6711 25.9014V52.0278Z" fill="#ECBBAC"/>
<path d="M30.6528 39.9541C30.5935 39.8541 30.5142 39.7664 30.4196 39.696C30.3249 39.6257 30.2167 39.5742 30.1013 39.5444C29.9865 39.5147 29.8667 39.507 29.7488 39.522C29.6309 39.537 29.5172 39.5742 29.4142 39.6316L29.134 39.7885V27.7496C29.134 27.5184 29.0387 27.2967 28.8692 27.1332C28.6996 26.9697 28.4697 26.8778 28.2299 26.8778C27.9902 26.8778 27.7602 26.9697 27.5907 27.1332C27.4211 27.2967 27.3259 27.5184 27.3259 27.7496V40.8259L23.4566 42.9878C23.2498 43.1028 23.0986 43.292 23.0359 43.5142C22.9733 43.7363 23.0042 43.9733 23.1221 44.1734L25.3551 47.9045C25.4727 48.1048 25.6677 48.2521 25.8975 48.3143H26.1326C26.2906 48.313 26.4459 48.2741 26.5846 48.2009L27.3259 47.7912V50.8685H22.2813V36.6676L23.0046 37.0251C23.134 37.0865 23.2761 37.1193 23.4204 37.1209C23.5159 37.1242 23.6111 37.1094 23.7007 37.0774C23.9269 37.007 24.1153 36.8535 24.225 36.6502L25.7257 33.756C25.8336 33.5512 25.8533 33.3135 25.7805 33.0948C25.7077 32.8761 25.5483 32.6939 25.337 32.5878L22.2452 31.0535V27.7496C22.2452 27.5184 22.1499 27.2967 21.9804 27.1332C21.8109 26.9697 21.5809 26.8778 21.3411 26.8778C21.1014 26.8778 20.8714 26.9697 20.7019 27.1332C20.5323 27.2967 20.4371 27.5184 20.4371 27.7496V30.1556L19.4246 29.65C19.2117 29.5458 18.9647 29.527 18.7375 29.5977C18.6238 29.6316 18.5182 29.6867 18.4267 29.76C18.3351 29.8333 18.2595 29.9233 18.2041 30.0249L16.6853 32.9191C16.5774 33.1239 16.5577 33.3615 16.6305 33.5803C16.7033 33.799 16.8627 33.9812 17.0741 34.0872L20.4552 35.7697V50.8685H18.4934C18.2536 50.8685 18.0237 50.9603 17.8542 51.1238C17.6846 51.2873 17.5894 51.509 17.5894 51.7403C17.5894 51.9715 17.6846 52.1932 17.8542 52.3567C18.0237 52.5202 18.2536 52.612 18.4934 52.612H31.0957C31.3355 52.612 31.5655 52.5202 31.735 52.3567C31.9045 52.1932 31.9998 51.9715 31.9998 51.7403C31.9998 51.509 31.9045 51.2873 31.735 51.1238C31.5655 50.9603 31.3355 50.8685 31.0957 50.8685H29.134V46.78L32.5512 44.8708C32.7565 44.7544 32.9058 44.5645 32.9667 44.3426C33.0277 44.1206 32.9953 43.8844 32.8767 43.6852L30.6528 39.9541ZM18.7285 32.9801L19.4427 31.6463L20.4733 32.1607L22.2813 33.0324L23.7459 33.756L23.0136 35.0375L22.2633 34.6626L20.4552 33.7908L18.7285 32.9801ZM29.134 44.7575L26.467 46.2482L25.1381 44.0339L27.3259 42.8135L29.134 41.811L29.5408 41.5843L30.8607 43.7986L29.134 44.7575Z" fill="#ECBBAC"/>
<path d="M58.3899 42.4733H54.177V41.5492C54.1782 41.1975 54.1073 40.8489 53.9682 40.5237C53.8292 40.1985 53.6248 39.903 53.3668 39.6542C53.1089 39.4055 52.8024 39.2084 52.4652 39.0743C52.1279 38.9402 51.7665 38.8718 51.4016 38.8729H48.581C48.2162 38.8718 47.8548 38.9402 47.5175 39.0743C47.1803 39.2084 46.8738 39.4055 46.6159 39.6542C46.3579 39.903 46.1535 40.1985 46.0145 40.5237C45.8754 40.8489 45.8044 41.1975 45.8056 41.5492V42.4733H41.5928C40.9038 42.4756 40.2439 42.7411 39.7576 43.2117C39.2713 43.6823 38.9982 44.3196 38.9982 44.9839V57.8074C38.9982 58.4718 39.2713 59.1091 39.7576 59.5797C40.2439 60.0503 40.9038 60.3158 41.5928 60.3181H58.3899C59.0788 60.3158 59.7388 60.0503 60.2251 59.5797C60.7114 59.1091 60.9845 58.4718 60.9845 57.8074V44.9839C60.9845 44.3196 60.7114 43.6823 60.2251 43.2117C59.7388 42.7411 59.0788 42.4756 58.3899 42.4733ZM47.6137 41.5492C47.6137 41.3018 47.7156 41.0646 47.897 40.8897C48.0784 40.7147 48.3245 40.6165 48.581 40.6165H51.4016C51.6582 40.6165 51.9042 40.7147 52.0856 40.8897C52.267 41.0646 52.369 41.3018 52.369 41.5492V42.4733H47.6137V41.5492ZM54.9907 44.2168V58.5746H44.992V44.2168H54.9907ZM40.8063 57.8074V44.9839C40.8063 44.782 40.8888 44.5882 41.0361 44.4445C41.1833 44.3009 41.3834 44.2191 41.5928 44.2168H43.1839V58.5746H41.5928C41.3834 58.5723 41.1833 58.4905 41.0361 58.3468C40.8888 58.2032 40.8063 58.0094 40.8063 57.8074ZM59.1764 57.8074C59.1764 58.0094 59.0938 58.2032 58.9466 58.3468C58.7993 58.4905 58.5993 58.5723 58.3899 58.5746H56.7988V44.2168H58.3899C58.5993 44.2191 58.7993 44.3009 58.9466 44.4445C59.0938 44.5882 59.1764 44.782 59.1764 44.9839V57.8074Z" fill="#ECBBAC"/>
</svg>
