<svg width="40" height="40" viewBox="0 0 40 40" fill="none" xmlns="http://www.w3.org/2000/svg">
<path d="M0 20C0 8.95431 8.95431 0 20 0C31.0457 0 40 8.95431 40 20C40 31.0457 31.0457 40 20 40C8.95431 40 0 31.0457 0 20Z" fill="#054A91"/>
<path d="M19.9911 9.00043C18.5578 8.94828 17.1289 9.18713 15.7905 9.70256C14.4521 10.218 13.232 10.9993 12.204 11.9993C11.1759 12.9994 10.3612 14.1974 9.80899 15.521C9.25678 16.8446 8.97854 18.2665 8.99108 19.7006C8.97229 21.1784 9.26683 22.6434 9.85529 23.9991C10.4438 25.3548 11.3128 26.5704 12.4051 27.5659L12.4569 29.2563C12.4715 29.7236 12.6675 30.1668 13.0032 30.4922C13.339 30.8176 13.7882 30.9995 14.2557 30.9995C14.5058 30.9991 14.7531 30.9473 14.9823 30.8471L16.9032 30.0004C17.9105 30.2686 18.9487 30.4032 19.9911 30.4008C21.4244 30.453 22.8534 30.2142 24.1918 29.6988C25.5303 29.1833 26.7504 28.402 27.7786 27.402C28.8067 26.402 29.6215 25.204 30.1738 23.8803C30.7261 22.5567 31.0045 21.1348 30.9921 19.7006C31.0045 18.2664 30.7261 16.8446 30.1738 15.5209C29.6215 14.1973 28.8067 12.9993 27.7786 11.9992C26.7504 10.9992 25.5303 10.2179 24.1919 9.7025C22.8534 9.18709 21.4244 8.94826 19.9911 9.00043ZM19.9911 28.4008C19.101 28.4034 18.2147 28.2855 17.3563 28.0502C16.9588 27.943 16.5365 27.9754 16.16 28.142L14.4462 28.8979L14.4012 27.4047C14.3913 27.1629 14.3329 26.9255 14.2296 26.7066C14.1263 26.4877 13.9801 26.2917 13.7997 26.1303C12.9002 25.3207 12.1843 24.3282 11.6999 23.2193C11.2155 22.1103 10.9738 20.9106 10.9911 19.7006C10.9847 18.5308 11.2154 17.3718 11.6692 16.2936C12.1231 15.2154 12.7907 14.2403 13.6318 13.4272C14.4729 12.6141 15.4701 11.9799 16.563 11.5628C17.656 11.1457 18.8221 10.9544 19.9911 11.0004C21.1585 10.9608 22.3219 11.1564 23.4121 11.5758C24.5023 11.9951 25.497 12.6296 26.3369 13.4414C27.1767 14.2532 27.8447 15.2258 28.3008 16.3011C28.757 17.3764 28.992 18.5325 28.992 19.7006C28.992 20.8687 28.757 22.0248 28.3008 23.1002C27.8447 24.1755 27.1767 25.148 26.3369 25.9598C25.497 26.7716 24.5023 27.4061 23.4121 27.8255C22.3219 28.2448 21.1585 28.4405 19.9911 28.4008ZM23.7255 16.5854L21.413 19.3403L18.0663 17.2836C17.862 17.1579 17.6193 17.11 17.3826 17.1485C17.1459 17.1871 16.931 17.3096 16.7772 17.4936L13.7255 21.1303C13.6406 21.2308 13.5764 21.347 13.5365 21.4724C13.4967 21.5977 13.482 21.7297 13.4932 21.8607C13.5045 21.9918 13.5415 22.1193 13.6021 22.236C13.6627 22.3527 13.7458 22.4563 13.8465 22.5409C13.9473 22.6254 14.0637 22.6893 14.1892 22.7287C14.3146 22.7682 14.4466 22.7825 14.5776 22.7709C14.7087 22.7592 14.8361 22.7218 14.9526 22.6608C15.0691 22.5999 15.1725 22.5165 15.2567 22.4155L17.7547 19.4399L21.1014 21.4956C21.3055 21.6214 21.5481 21.6695 21.7848 21.6311C22.0215 21.5927 22.2365 21.4704 22.3905 21.2866L25.2567 17.8706C25.342 17.7701 25.4067 17.6538 25.4469 17.5283C25.4872 17.4028 25.5022 17.2706 25.4912 17.1393C25.4801 17.008 25.4432 16.8801 25.3825 16.7631C25.3219 16.6461 25.2387 16.5422 25.1377 16.4575C25.0368 16.3728 24.9201 16.3088 24.7943 16.2694C24.6686 16.2299 24.5362 16.2158 24.405 16.2276C24.2737 16.2395 24.1461 16.2773 24.0295 16.3387C23.9129 16.4001 23.8095 16.4839 23.7255 16.5854Z" fill="white"/>
</svg>
