<svg width="57" height="56" viewBox="0 0 57 56" fill="none" xmlns="http://www.w3.org/2000/svg">
<path d="M19.75 21H42.5" stroke="white" stroke-width="2" stroke-linecap="round" stroke-linejoin="round"/>
<path d="M19.75 28H42.5" stroke="white" stroke-width="2" stroke-linecap="round" stroke-linejoin="round"/>
<path d="M19.75 35H42.5" stroke="white" stroke-width="2" stroke-linecap="round" stroke-linejoin="round"/>
<path d="M7.5 45.5C8.42826 45.5 9.3185 45.1313 9.97487 44.4749C10.6313 43.8185 11 42.9283 11 42V12.25C11 11.7859 11.1844 11.3408 11.5126 11.0126C11.8408 10.6844 12.2859 10.5 12.75 10.5H49.5C49.9641 10.5 50.4092 10.6844 50.7374 11.0126C51.0656 11.3408 51.25 11.7859 51.25 12.25V42C51.25 42.9283 50.8813 43.8185 50.2249 44.4749C49.5685 45.1313 48.6783 45.5 47.75 45.5H7.5Z" stroke="white" stroke-width="2" stroke-linecap="round" stroke-linejoin="round"/>
<path d="M7.5 45.5C6.57174 45.5 5.6815 45.1313 5.02513 44.4749C4.36875 43.8185 4 42.9283 4 42V17.5" stroke="white" stroke-width="2" stroke-linecap="round" stroke-linejoin="round"/>
</svg>
