<svg width="73" height="72" viewBox="0 0 73 72" fill="none" xmlns="http://www.w3.org/2000/svg">
<path d="M55.582 32.5V22" stroke="#ECBBAC" stroke-width="2" stroke-linecap="round" stroke-linejoin="round"/>
<path d="M60.832 27.25H50.332" stroke="#ECBBAC" stroke-width="2" stroke-linecap="round" stroke-linejoin="round"/>
<path d="M45.082 13.25V20.25" stroke="#ECBBAC" stroke-width="2" stroke-linecap="round" stroke-linejoin="round"/>
<path d="M48.582 16.75H41.582" stroke="#ECBBAC" stroke-width="2" stroke-linecap="round" stroke-linejoin="round"/>
<path d="M56.7998 40.7181C53.3298 41.514 49.7144 41.4155 46.2928 40.4318C42.8713 39.448 39.7556 37.6113 37.2382 35.0939C34.7208 32.5765 32.8841 29.4608 31.9003 26.0393C30.9166 22.6177 30.8181 19.0023 31.6141 15.5323L31.6138 15.5322C27.9605 16.375 24.5994 18.1803 21.8795 20.7607C19.1595 23.3411 17.1799 26.6026 16.1462 30.2065C15.1124 33.8104 15.0622 37.6253 16.0008 41.2551C16.9393 44.885 18.8324 48.1974 21.4835 50.8485C24.1346 53.4996 27.4471 55.3928 31.0769 56.3313C34.7068 57.2699 38.5217 57.2197 42.1256 56.186C45.7295 55.1522 48.991 53.1726 51.5714 50.4527C54.1518 47.7328 55.9571 44.3717 56.7999 40.7184L56.7998 40.7181Z" stroke="#ECBBAC" stroke-width="2" stroke-linecap="round" stroke-linejoin="round"/>
</svg>
