<svg width="48" height="49" viewBox="0 0 48 49" fill="none" xmlns="http://www.w3.org/2000/svg">
<path d="M28.5 38C26.0147 38 24 35.9107 24 33.3334C24 30.756 26.0147 28.6667 28.5 28.6667C29.0666 28.6662 29.6278 28.7764 30.1521 28.9912L30.1518 28.9912C30.4371 27.6013 31.1108 26.3208 32.0946 25.2984C33.0784 24.2761 34.3321 23.5537 35.71 23.2152C37.0879 22.8767 38.5335 22.936 39.8791 23.3862C41.2246 23.8363 42.4149 24.6589 43.3117 25.7584C44.2085 26.8579 44.7751 28.1892 44.9456 29.5978C45.1162 31.0064 44.8837 32.4344 44.2752 33.7162C43.6667 34.9979 42.7071 36.0808 41.5078 36.8391C40.3086 37.5973 38.9189 37.9999 37.5 38H28.5Z" stroke="#D87053" stroke-width="2" stroke-linecap="round" stroke-linejoin="round"/>
<path d="M3 33.5V30.5C3 26.9614 4.04302 23.5013 5.99866 20.5522C7.95431 17.6031 10.7358 15.2958 13.9955 13.9188C17.2552 12.5418 20.8485 12.1561 24.3262 12.81C27.8038 13.4639 31.0116 15.1283 33.5486 17.5952" stroke="#D87053" stroke-width="2" stroke-linecap="round" stroke-linejoin="round"/>
<path d="M9 33.5V30.5C9.00019 28.2821 9.61499 26.1076 10.7761 24.218C11.9373 22.3283 13.5994 20.7974 15.5779 19.7952C17.5565 18.793 19.774 18.3586 21.9845 18.5404C24.1949 18.7221 26.3118 19.5129 28.1 20.8248" stroke="#D87053" stroke-width="2" stroke-linecap="round" stroke-linejoin="round"/>
<path d="M15 33.5V30.5C15.0008 29.5939 15.2066 28.6998 15.602 27.8846C15.9974 27.0694 16.5722 26.3542 17.2832 25.7926C17.9942 25.231 18.8231 24.8376 19.7078 24.6418C20.5924 24.4461 21.5099 24.453 22.3915 24.6622" stroke="#D87053" stroke-width="2" stroke-linecap="round" stroke-linejoin="round"/>
</svg>
