<svg width="48" height="48" viewBox="0 0 48 48" fill="none" xmlns="http://www.w3.org/2000/svg">
<path d="M17.6359 34.6067C15.5146 40.9706 7.0293 40.9706 7.0293 40.9706C7.0293 40.9706 7.0293 32.4853 13.3933 30.364" stroke="#EFBB68" stroke-width="2" stroke-linecap="round" stroke-linejoin="round"/>
<path d="M36.7279 19.7574L23.9999 32.4853L15.5146 24L28.2426 11.2721C33.0621 6.45259 37.8816 6.4996 39.937 6.80627C40.2535 6.85344 40.5464 7.00103 40.7727 7.22728C40.9989 7.45353 41.1465 7.74647 41.1937 8.06294C41.5004 10.1183 41.5474 14.9379 36.7279 19.7574Z" stroke="#EFBB68" stroke-width="2" stroke-linecap="round" stroke-linejoin="round"/>
<path d="M34.6066 21.8787V33.9853C34.6066 34.1822 34.5678 34.3773 34.4924 34.5593C34.417 34.7413 34.3066 34.9066 34.1673 35.0459L28.1032 41.11C27.9112 41.302 27.6707 41.4383 27.4074 41.5043C27.144 41.5703 26.8677 41.5637 26.6078 41.485C26.348 41.4063 26.1144 41.2586 25.9319 41.0576C25.7494 40.8565 25.6249 40.6097 25.5717 40.3435L24 32.4853" stroke="#EFBB68" stroke-width="2" stroke-linecap="round" stroke-linejoin="round"/>
<path d="M26.1209 13.3934H14.0143C13.8173 13.3934 13.6222 13.4322 13.4403 13.5076C13.2583 13.583 13.0929 13.6935 12.9536 13.8328L6.88954 19.8969C6.69756 20.0888 6.56128 20.3293 6.49524 20.5927C6.42921 20.856 6.43588 21.1323 6.51456 21.3922C6.59323 21.652 6.74096 21.8857 6.94199 22.0681C7.14301 22.2506 7.3898 22.3751 7.65602 22.4284L15.5143 24" stroke="#EFBB68" stroke-width="2" stroke-linecap="round" stroke-linejoin="round"/>
</svg>
