<svg width="48" height="49" viewBox="0 0 48 49" fill="none" xmlns="http://www.w3.org/2000/svg">
<path d="M17.3989 11.5631L15.9639 8.09853" stroke="#D87053" stroke-width="2" stroke-linecap="round" stroke-linejoin="round"/>
<path d="M8.06318 20.8987L4.59863 19.4636" stroke="#D87053" stroke-width="2" stroke-linecap="round" stroke-linejoin="round"/>
<path d="M39.9365 20.8987L43.4011 19.4636" stroke="#D87053" stroke-width="2" stroke-linecap="round" stroke-linejoin="round"/>
<path d="M30.6016 11.5631L32.0366 8.09853" stroke="#D87053" stroke-width="2" stroke-linecap="round" stroke-linejoin="round"/>
<path d="M45 30.5H3" stroke="#D87053" stroke-width="2" stroke-linecap="round" stroke-linejoin="round"/>
<path d="M39 38H9" stroke="#D87053" stroke-width="2" stroke-linecap="round" stroke-linejoin="round"/>
<path d="M13.1544 30.5001C12.6941 28.8299 12.6257 27.0761 12.9546 25.3752C13.2834 23.6743 14.0006 22.0723 15.0503 20.6941C16.1 19.3159 17.4538 18.1988 19.0062 17.4298C20.5586 16.6608 22.2676 16.2607 24 16.2607C25.7324 16.2607 27.4414 16.6608 28.9938 17.4298C30.5462 18.1988 31.9 19.3159 32.9497 20.6941C33.9994 22.0723 34.7166 23.6742 35.0455 25.3751C35.3743 27.076 35.3059 28.8299 34.8456 30.5" stroke="#D87053" stroke-width="2" stroke-linecap="round" stroke-linejoin="round"/>
</svg>
