<svg width="72" height="72" viewBox="0 0 72 72" fill="none" xmlns="http://www.w3.org/2000/svg">
<path d="M41.25 51.7499C38.3505 51.7499 36 49.3123 36 46.3054C36 43.2986 38.3505 40.861 41.25 40.861C41.911 40.8604 42.5658 40.989 43.1774 41.2396L43.1771 41.2396C43.51 39.618 44.2959 38.1242 45.4437 36.9314C46.5915 35.7386 48.0541 34.8958 49.6616 34.5009C51.2692 34.106 52.9557 34.1752 54.5256 34.7004C56.0954 35.2256 57.484 36.1853 58.5303 37.468C59.5766 38.7507 60.2376 40.3039 60.4366 41.9473C60.6355 43.5906 60.3643 45.2567 59.6544 46.7521C58.9444 48.2474 57.8249 49.5108 56.4258 50.3954C55.0267 51.2801 53.4053 51.7497 51.75 51.7499H41.25Z" stroke="#ECBBAC" stroke-width="2" stroke-linecap="round" stroke-linejoin="round"/>
<path d="M11.5 46.5V43C11.5 38.8716 12.7169 34.8348 14.9984 31.3942C17.28 27.9536 20.5251 25.2618 24.3281 23.6552C28.1311 22.0487 32.3232 21.5988 36.3805 22.3617C40.4378 23.1245 44.1803 25.0664 47.14 27.9444" stroke="#ECBBAC" stroke-width="2" stroke-linecap="round" stroke-linejoin="round"/>
<path d="M18.5 46.5V43C18.5002 40.4125 19.2175 37.8756 20.5722 35.671C21.9269 33.4664 23.866 31.6803 26.1743 30.5111C28.4826 29.3418 31.0697 28.8351 33.6486 29.0471C36.2274 29.2591 38.6971 30.1817 40.7834 31.7123" stroke="#ECBBAC" stroke-width="2" stroke-linecap="round" stroke-linejoin="round"/>
<path d="M25.5 46.5V43C25.5009 41.9429 25.741 40.8998 26.2023 39.9487C26.6636 38.9976 27.3342 38.1632 28.1637 37.508C28.9933 36.8528 29.9603 36.3939 30.9924 36.1655C32.0245 35.9371 33.0949 35.9452 34.1234 36.1892" stroke="#ECBBAC" stroke-width="2" stroke-linecap="round" stroke-linejoin="round"/>
</svg>
