<svg width="48" height="48" viewBox="0 0 48 48" fill="none" xmlns="http://www.w3.org/2000/svg">
<path d="M46.0001 19.42C46.099 16.5573 45.4729 13.716 44.1801 11.16C43.3029 10.1112 42.0855 9.40339 40.7401 9.15997C35.1751 8.65502 29.5871 8.44806 24.0001 8.53997C18.4333 8.44388 12.8655 8.64417 7.32005 9.13997C6.22369 9.3394 5.20909 9.85365 4.40005 10.62C2.60005 12.28 2.40005 15.12 2.20005 17.52C1.90988 21.8351 1.90988 26.1648 2.20005 30.48C2.25791 31.8308 2.45904 33.1716 2.80005 34.48C3.0412 35.4901 3.5291 36.4247 4.22005 37.2C5.03459 38.0069 6.07282 38.5504 7.20005 38.76C11.5119 39.2922 15.8565 39.5128 20.2001 39.42C27.2001 39.52 33.3401 39.42 40.6001 38.86C41.755 38.6633 42.8224 38.1191 43.6601 37.3C44.22 36.7398 44.6382 36.0542 44.8801 35.3C45.5953 33.1052 45.9466 30.8082 45.9201 28.5C46.0001 27.38 46.0001 20.62 46.0001 19.42ZM19.4801 29.7V17.32L31.3201 23.54C28.0001 25.38 23.6201 27.46 19.4801 29.7Z" fill="#054A91"/>
</svg>
