<svg width="48" height="48" viewBox="0 0 48 48" fill="none" xmlns="http://www.w3.org/2000/svg">
<path d="M8.57143 3.75C5.92011 3.75 3.75 5.92011 3.75 8.57143V39.4286C3.75 42.0799 5.92011 44.25 8.57143 44.25H39.4286C42.0799 44.25 44.25 42.0799 44.25 39.4286V8.57143C44.25 5.92011 42.0799 3.75 39.4286 3.75H8.57143ZM8.57143 5.67857H14.9165C11.473 9.26155 9.53571 13.8924 9.53571 18.6964C9.53571 23.6721 11.5705 28.4356 15.2348 32.042C15.3505 32.2445 15.4467 33.2374 15.0031 34.3849C14.7235 35.1081 14.164 36.0527 13.084 36.4095C12.6693 36.5445 12.3996 36.9512 12.4286 37.3851C12.4575 37.819 12.7765 38.1854 13.2008 38.2722C15.9683 38.8218 17.7604 37.9919 19.2068 37.3361C20.5086 36.7383 21.3681 36.3328 22.6892 36.8728C25.3892 37.9239 28.2621 38.4643 31.2321 38.4643C35.1796 38.4643 38.9768 37.5007 42.3214 35.6807V39.4286C42.3214 41.0375 41.0375 42.3214 39.4286 42.3214H8.57143C6.96253 42.3214 5.67857 41.0375 5.67857 39.4286V8.57143C5.67857 6.96253 6.96253 5.67857 8.57143 5.67857ZM31.7143 14.3571C32.2446 14.3571 32.6786 14.7911 32.6786 15.3214V24C32.6786 24.5304 32.2446 24.9643 31.7143 24.9643C31.1839 24.9643 30.75 24.5304 30.75 24V15.3214C30.75 14.7911 31.1839 14.3571 31.7143 14.3571ZM17.25 15.3214H22.0714C22.4186 15.3214 22.7473 15.5138 22.9208 15.8224C23.0848 16.1213 23.0739 16.4972 22.8907 16.7961L18.9865 23.0357H22.0714C22.6018 23.0357 23.0357 23.4696 23.0357 24C23.0357 24.5304 22.6018 24.9643 22.0714 24.9643H17.25C16.9029 24.9643 16.5742 24.7719 16.4006 24.4633C16.2367 24.1644 16.2475 23.7885 16.4307 23.4896L20.335 17.25H17.25C16.7196 17.25 16.2857 16.8161 16.2857 16.2857C16.2857 15.7554 16.7196 15.3214 17.25 15.3214ZM26.4107 18.2143C26.9989 18.2143 27.548 18.3775 28.0398 18.6475C28.2134 18.3967 28.4839 18.2143 28.8214 18.2143C29.3518 18.2143 29.7857 18.6482 29.7857 19.1786V24C29.7857 24.5304 29.3518 24.9643 28.8214 24.9643C28.4839 24.9643 28.2134 24.7818 28.0398 24.5311C27.548 24.8011 26.9989 24.9643 26.4107 24.9643C24.5496 24.9643 23.0357 23.4504 23.0357 21.5893C23.0357 19.7282 24.5496 18.2143 26.4107 18.2143ZM37.0179 18.2143C38.8789 18.2143 40.3929 19.7282 40.3929 21.5893C40.3929 23.4504 38.8789 24.9643 37.0179 24.9643C35.1568 24.9643 33.6429 23.4504 33.6429 21.5893C33.6429 19.7282 35.1568 18.2143 37.0179 18.2143ZM26.4107 20.1429C26.3107 20.1429 26.2131 20.1538 26.1188 20.173C25.9303 20.2115 25.7547 20.2857 25.6009 20.3896C25.447 20.4934 25.3149 20.6256 25.211 20.7794C25.1072 20.9333 25.0329 21.1088 24.9944 21.2974C24.9752 21.3916 24.9643 21.4892 24.9643 21.5893C24.9643 21.6893 24.9752 21.7869 24.9944 21.8812C25.0136 21.9755 25.0408 22.0659 25.0773 22.1524C25.1138 22.239 25.1591 22.3222 25.211 22.3991C25.2629 22.4761 25.3227 22.5466 25.388 22.612C25.4534 22.6773 25.5239 22.7371 25.6009 22.789C25.7547 22.8928 25.9303 22.9671 26.1188 23.0056C26.2131 23.0248 26.3107 23.0357 26.4107 23.0357C26.5108 23.0357 26.6084 23.0248 26.7026 23.0056C27.3625 22.871 27.8571 22.2896 27.8571 21.5893C27.8571 20.7889 27.2111 20.1429 26.4107 20.1429ZM37.0179 20.1429C36.9178 20.1429 36.8202 20.1538 36.7259 20.173C36.6317 20.1922 36.5413 20.2193 36.4547 20.2559C36.3682 20.2924 36.2849 20.3377 36.208 20.3896C36.1311 20.4415 36.0606 20.5012 35.9952 20.5666C35.8644 20.6974 35.7575 20.853 35.6844 21.0262C35.6479 21.1127 35.6208 21.2031 35.6016 21.2974C35.5823 21.3916 35.5714 21.4892 35.5714 21.5893C35.5714 21.6893 35.5823 21.7869 35.6016 21.8812C35.6208 21.9755 35.6479 22.0659 35.6844 22.1524C35.721 22.239 35.7662 22.3222 35.8181 22.3991C35.8701 22.4761 35.9298 22.5466 35.9952 22.612C36.0606 22.6773 36.1311 22.7371 36.208 22.789C36.2849 22.8409 36.3682 22.8862 36.4547 22.9227C36.5413 22.9592 36.6317 22.9864 36.7259 23.0056C36.8202 23.0248 36.9178 23.0357 37.0179 23.0357C37.1179 23.0357 37.2155 23.0248 37.3098 23.0056C37.9696 22.871 38.4643 22.2896 38.4643 21.5893C38.4643 20.7889 37.8182 20.1429 37.0179 20.1429Z" fill="#054A91"/>
</svg>
