<svg width="73" height="72" viewBox="0 0 73 72" fill="none" xmlns="http://www.w3.org/2000/svg">
<path d="M36.332 55.25C36.332 55.25 14.457 43 14.457 28.125C14.4575 25.4959 15.3685 22.9482 17.0351 20.9148C18.7017 18.8815 21.0212 17.4882 23.599 16.9717C26.1769 16.4552 28.854 16.8475 31.1753 18.0818C33.4966 19.3162 35.3188 21.3164 36.332 23.7424L36.332 23.7424C37.3452 21.3164 39.1674 19.3162 41.4887 18.0818C43.81 16.8475 46.4872 16.4552 49.065 16.9717C51.6429 17.4882 53.9623 18.8815 55.629 20.9148C57.2956 22.9481 58.2066 25.4959 58.207 28.125C58.207 43 36.332 55.25 36.332 55.25Z" stroke="#ECBBAC" stroke-width="2" stroke-linecap="round" stroke-linejoin="round"/>
</svg>
