<svg width="49" height="49" viewBox="0 0 49 49" fill="none" xmlns="http://www.w3.org/2000/svg">
<path d="M35 21.5L45.5 15.5V33.5L35 27.5M5 11.75H29C30.5913 11.75 32.1174 12.3821 33.2426 13.5074C34.3679 14.6326 35 16.1587 35 17.75V35.75C35 36.1478 34.842 36.5294 34.5607 36.8107C34.2794 37.092 33.8978 37.25 33.5 37.25H9.5C7.9087 37.25 6.38258 36.6179 5.25736 35.4926C4.13214 34.3674 3.5 32.8413 3.5 31.25V13.25C3.5 12.8522 3.65804 12.4706 3.93934 12.1893C4.22064 11.908 4.60218 11.75 5 11.75Z" stroke="#D87053" stroke-width="2" stroke-linecap="round" stroke-linejoin="round"/>
</svg>
