<svg width="25" height="24" viewBox="0 0 25 24" fill="none" xmlns="http://www.w3.org/2000/svg">
<path d="M17.75 10.5L23 7.5V16.5L17.75 13.5M2.75 5.625H14.75C15.5456 5.625 16.3087 5.94107 16.8713 6.50368C17.4339 7.06629 17.75 7.82935 17.75 8.625V17.625C17.75 17.8239 17.671 18.0147 17.5303 18.1553C17.3897 18.296 17.1989 18.375 17 18.375H5C4.20435 18.375 3.44129 18.0589 2.87868 17.4963C2.31607 16.9337 2 16.1706 2 15.375V6.375C2 6.17609 2.07902 5.98532 2.21967 5.84467C2.36032 5.70402 2.55109 5.625 2.75 5.625Z" stroke="#3D3D3D" stroke-width="2" stroke-linecap="round" stroke-linejoin="round"/>
</svg>
