<svg width="33" height="32" viewBox="0 0 33 32" fill="none" xmlns="http://www.w3.org/2000/svg">
<path d="M23.5 14L30.5 10V22L23.5 18M3.5 7.5H19.5C20.5609 7.5 21.5783 7.92143 22.3284 8.67157C23.0786 9.42172 23.5 10.4391 23.5 11.5V23.5C23.5 23.7652 23.3946 24.0196 23.2071 24.2071C23.0196 24.3946 22.7652 24.5 22.5 24.5H6.5C5.43913 24.5 4.42172 24.0786 3.67157 23.3284C2.92143 22.5783 2.5 21.5609 2.5 20.5V8.5C2.5 8.23478 2.60536 7.98043 2.79289 7.79289C2.98043 7.60536 3.23478 7.5 3.5 7.5Z" stroke="white" stroke-width="2" stroke-linecap="round" stroke-linejoin="round"/>
</svg>
